<?xml version="1.0" standalone="no"?>
<!DOCTYPE svg PUBLIC "-//W3C//DTD SVG 20010904//EN"
 "http://www.w3.org/TR/2001/REC-SVG-20010904/DTD/svg10.dtd">
<svg version="1.0" xmlns="http://www.w3.org/2000/svg"
 width="256.000000pt" height="256.000000pt" viewBox="0 0 256.000000 256.000000"
 preserveAspectRatio="xMidYMid meet">
<metadata>
Created by potrace 1.14, written by Peter Selinger 2001-2017
</metadata>
<g transform="translate(0.000000,256.000000) scale(0.100000,-0.100000)"
fill="#000000" stroke="none">
<path d="M1207 2529 c-45 -26 -54 -113 -13 -136 12 -7 11 -21 -11 -98 -44
-160 -84 -300 -92 -319 -9 -23 -3 -29 -109 114 -63 84 -77 109 -68 122 17 28
-8 68 -42 68 -57 0 -83 -66 -38 -96 14 -8 23 -21 21 -27 -6 -15 -13 -90 -14
-144 l-1 -43 -87 98 c-48 53 -92 100 -98 104 -5 4 -8 25 -6 47 2 33 -2 42 -23
56 -24 16 -28 16 -60 1 -43 -20 -57 -67 -31 -96 10 -11 21 -18 24 -15 20 12
29 -26 45 -180 10 -93 19 -190 21 -215 2 -25 7 -76 11 -115 14 -145 13 -201
-6 -285 -46 -215 -46 -379 0 -470 22 -42 110 -128 175 -169 l47 -30 -40 -25
c-82 -52 -150 -177 -196 -361 -17 -70 -23 -107 -32 -227 l-7 -88 758 0 757 0
-7 58 c-34 297 -156 581 -289 669 l-46 31 66 38 c81 47 115 85 145 161 22 54
24 72 24 269 0 172 3 214 15 229 12 14 15 52 16 179 1 167 5 217 30 376 20
136 24 150 38 150 7 0 20 8 29 18 46 51 -15 129 -78 100 -29 -13 -39 -38 -30
-76 5 -25 2 -30 -36 -46 -23 -10 -78 -43 -122 -72 -44 -30 -86 -54 -92 -54 -7
0 -18 27 -25 63 -7 34 -14 67 -16 72 -1 6 -10 43 -18 84 -9 41 -19 77 -21 79
-2 3 7 18 20 34 14 16 25 40 25 53 0 28 -19 74 -32 76 -4 1 -14 2 -20 3 -58 8
-105 -85 -67 -131 9 -10 7 -19 -8 -36 -11 -12 -38 -49 -59 -82 -22 -33 -41
-62 -44 -65 -3 -3 -14 -18 -24 -35 -10 -16 -30 -45 -44 -64 l-25 -34 -19 49
c-60 154 -106 309 -96 322 6 7 13 30 15 52 3 31 0 41 -19 54 -26 18 -46 20
-71 5z"/>
</g>
</svg>
