<svg width="506" height="52" viewBox="0 0 506 52" fill="none" xmlns="http://www.w3.org/2000/svg">
<g clip-path="url(#clip0_13_1870)">
<path d="M-1.94839 62.9954C-9.71638 51.655 6.4059 36.3731 18.5709 29.1816C30.6625 21.9901 46.6382 20.8837 59.7559 26.3465C72.1407 31.5327 82.4002 42.1816 95.9576 43.0805C114.058 44.2561 128.275 27.3837 146.376 25.2401C165.43 22.9582 183.384 37.6178 202.364 35.1284C218.34 32.9848 229.479 19.5699 242.89 10.9954C262.53 -1.52052 289.205 -3.52584 310.603 6.01672C328.484 13.9688 343.654 29.4582 363.44 30.288C371.941 30.6337 380.442 28.1444 388.869 29.3891C404.186 31.6018 415.471 45.5699 430.787 47.6444C438.482 48.6816 446.25 46.538 453.798 44.671C461.346 42.8039 469.334 41.1444 476.882 43.0805C484.357 44.9476 507.246 55.7348 506 62.9954C504.681 71.0167 478.641 71.4316 470.067 70.8093C461.493 70.2561 453.725 66.2454 445.517 63.7561C415.105 54.6284 382.714 67.2135 350.909 70.5327C311.776 74.6125 272.276 64.3093 232.997 66.5912C199.506 68.5273 166.749 79.5912 133.259 77.7242C112.666 76.5486 92.8064 70.5327 72.6536 66.3837C52.5008 62.3039 6.03944 74.6816 -1.94839 62.9954Z" fill="#ffba3b"/>
<path d="M162.499 33.4682C158.542 36.9948 152.166 39.2767 147.696 41.2821C143.152 43.3565 140.074 46.4682 135.971 48.9576C132.966 50.8246 121.241 54.7661 118.969 48.9576C117.796 45.9842 121.387 42.1119 125.051 39.0693C131.5 35.6119 137.949 31.8087 145.131 30.9097C150.994 30.2874 156.783 31.6704 162.499 33.4682Z" fill="#9FF24B"/>
<path d="M312.069 12.3779C312.436 12.5162 312.802 12.7236 313.168 12.9311C312.655 15.0747 311.556 17.08 310.164 18.8087C305.107 24.7555 297.486 23.7183 290.451 23.58C280.777 23.4417 272.13 25.0321 263.703 29.8726C252.783 36.1651 243.55 44.6704 229.992 43.5641C222.811 43.0109 220.612 40.3141 221.125 36.8566C230.286 31.6013 238.2 23.3034 247.141 17.3566C265.901 4.77151 291.55 2.83534 312.069 12.3779Z" fill="#9FF24B"/>
<path d="M372.234 33.1914C377.511 33.3297 382.787 33.7446 388.063 34.0212C389.676 34.5744 391.214 35.2659 392.753 36.0265C380.808 37.0637 368.57 41.4201 357.284 43.218C353.62 43.7712 337.645 44.2552 344.973 37.4786C347.758 34.9201 353.767 34.3669 357.504 33.8137C359.043 33.6063 360.582 33.468 362.121 33.3297C362.927 33.468 363.807 33.5372 364.613 33.5372C367.104 33.6754 369.669 33.3989 372.234 33.1914Z" fill="#9FF24B"/>
<path d="M463.105 53.9362C460.174 53.2447 454.97 51.5851 455.044 47.9203C455.044 46.9522 455.41 46.1915 455.923 45.5692C462.519 43.9096 469.481 42.5958 476.076 44.2554C478.421 44.8777 480.693 46.0532 482.598 47.5745C482.525 48.1277 482.452 48.6809 482.305 49.2341C479.887 56.0107 468.821 55.25 463.105 53.9362Z" fill="#9FF24B"/>
<path d="M45.8323 35.4043C42.6812 37.7554 38.6506 38.7926 34.6933 39.5533C27.1452 41.0054 20.0368 41.4894 13.5879 45.8458C7.72524 49.8565 3.98781 54.9735 2.08246 60.5746C-1.72825 50.6863 11.3894 38.3777 21.5757 32.3618C29.4169 27.7288 38.9437 25.9309 48.1041 27.1065C49.7163 30.0799 48.4705 33.399 45.8323 35.4043Z" fill="#9FF24B"/>
<path d="M33.8871 41.6279C29.4901 43.979 24.8 44.6705 20.0366 46.0535C15.2 47.5056 10.5831 49.5109 6.18616 51.862C5.01363 52.4843 3.47471 51.1705 4.28082 50.0641C9.85032 41.7662 17.7648 31.6013 28.171 28.7662C30.6626 28.0748 33.594 28.7662 35.426 30.5641C36.8917 32.0854 37.6245 33.4684 37.6245 35.5428C37.6245 38.0322 36.1588 40.3833 33.8871 41.6279Z" fill="#DCFFD6"/>
<path d="M145.204 39.5536C143.298 41.8355 141.906 43.1493 138.755 43.7025C135.823 44.1865 132.965 44.5323 130.107 45.2238C128.642 45.5695 127.469 43.8408 128.568 42.8036C130.694 40.8674 132.965 39.1387 135.457 37.5482C138.388 35.6812 140.807 35.5429 143.958 36.7876C144.984 37.1334 146.083 38.5163 145.204 39.5536Z" fill="#DCFFD6"/>
<path d="M152.826 37.5482C152.679 37.5482 152.532 37.6173 152.386 37.6173C147.989 38.5854 147.916 31.6014 152.386 32.6386C152.532 32.6386 152.679 32.7077 152.826 32.7077C155.317 33.3301 155.317 36.995 152.826 37.5482Z" fill="#DCFFD6"/>
<path d="M265.022 17.6331C261.797 21.3672 255.422 23.6491 250.951 25.8618C245.675 28.5586 240.105 30.7023 234.902 33.6065C231.605 35.4735 227.794 31.048 230.725 28.4895C235.562 24.3406 240.838 19.8459 246.774 17.1491C251.831 14.8671 258.06 12.032 263.703 13.0001C266.121 13.415 266.267 16.181 265.022 17.6331Z" fill="#DCFFD6"/>
<path d="M279.898 11.4098C278.652 11.4789 277.479 11.5481 276.234 11.6864C275.281 11.7555 275.061 10.2342 276.014 10.0959C277.186 9.8885 278.432 9.68105 279.605 9.54276C281.07 9.26616 281.363 11.2715 279.898 11.4098Z" fill="#DCFFD6"/>
<path d="M381.981 36.4419C379.562 38.2398 376.778 37.894 373.773 38.3089C370.402 38.7929 367.104 39.5536 363.953 40.5908C360.582 41.6281 359.116 36.6493 362.487 35.6121C365.932 34.5749 369.376 33.7451 372.967 33.261C375.825 32.8461 379.123 32.0164 381.614 33.6759C382.494 34.2291 383.007 35.6812 381.981 36.4419Z" fill="#DCFFD6"/>
<path d="M467.795 49.7181C467.062 50.7554 465.817 51.3086 464.497 50.9628C463.325 50.6862 462.226 50.3405 461.053 50.0639C458.488 49.3724 459.221 46.1916 461.639 45.915C462.812 45.7767 464.058 45.7075 465.23 45.5692C466.11 45.5001 467.356 46.1224 467.722 46.9522C468.088 47.7128 468.088 48.1277 468.162 48.9575C468.162 49.2341 468.015 49.5107 467.795 49.7181Z" fill="#DCFFD6"/>
</g>
<defs>
<clipPath id="clip0_13_1870">
<rect width="506" height="52" fill="white" transform="matrix(-1 0 0 1 506 0)"/>
</clipPath>
</defs>
</svg>
