<svg width="389" height="159" viewBox="0 0 389 159" fill="none" xmlns="http://www.w3.org/2000/svg">
<g clip-path="url(#clip0_13_2016)">
<path d="M270.517 13.3544C272.802 21.1774 272.858 29.9329 272.301 37.963C272.022 42.3149 271.409 46.6667 270.517 50.9667C269.682 54.9559 268.511 58.8415 267.731 62.8307C266.338 69.7729 266.226 77.4404 271.576 82.9838C275.868 87.4393 282.611 89.667 288.964 88.4236C294.816 87.2838 300.055 83.3983 302.395 78.2693C305.906 70.7054 302.674 62.209 300.946 54.5933C298.94 46.045 297.658 37.2377 297.38 28.4822C297.157 20.8147 298.494 12.2147 305.405 7.13752C312.594 1.90496 322.793 4.80618 327.307 11.7484C330.93 17.2918 331.097 24.4413 335.722 29.4148C339.902 33.922 346.924 34.8028 352.832 33.3003C359.575 31.6425 364.814 26.928 368.994 21.9027C379.025 9.88333 386.883 -4.88183 388.667 -20.1651C389.391 -26.4338 388.889 -32.3398 386.047 -38.0905C384.877 -40.4218 383.428 -42.805 381.254 -44.4628C379.582 -45.758 377.966 -46.017 375.904 -46.0689C356.454 -46.2243 337.004 -46.3797 317.554 -46.4833C294.147 -46.6387 270.685 -46.7424 247.278 -46.7942C222.645 -46.8978 198.012 -46.9496 173.435 -47.0014C150.418 -47.0014 127.457 -47.0532 104.44 -47.0014C86.049 -46.9496 67.7136 -46.8978 49.3225 -46.7942C38.3436 -46.6905 27.3646 -46.6905 16.4414 -46.3279C14.658 -46.2761 12.7075 -46.3279 10.9241 -46.017C6.24271 -44.9809 0.725379 -41.0953 0.279534 -36.329C-0.110581 -32.288 0.056611 -28.1952 0.056611 -24.2061C0.056611 -20.7868 0.168072 -17.3156 0.390995 -13.8963C0.948301 -4.10472 2.11865 5.99775 5.8526 15.2195C9.14071 23.2497 15.4383 31.1244 25.637 30.2955C27.9777 30.0883 30.2626 29.4148 32.3804 28.4822C33.8294 27.9124 34.9997 27.2907 35.78 26.8244C44.4182 22.0581 52.1648 14.5978 62.4749 19.4677C70.2772 23.1461 73.7325 31.0208 74.7914 38.6883C75.9618 47.2884 75.1815 56.1993 74.0112 64.7475C71.7262 81.326 66.8219 98.008 67.0449 114.794C67.1563 121.891 69.2741 129.611 76.2961 133.393C81.4234 136.138 87.4423 135.05 91.7335 131.424C97.5853 126.45 98.4769 118.731 98.4769 111.789C98.4769 103.033 97.4738 94.2779 96.3035 85.5742C95.1331 76.9741 93.7398 68.3741 92.8482 59.7222C92.4023 55.474 92.0679 51.2258 91.9565 46.9775C91.845 43.0402 91.7335 38.9474 92.4023 35.0618C93.4055 29.2594 97.3066 20.2966 105.388 22.3689C111.852 24.0268 114.026 31.6425 115.085 36.9787C115.531 39.3618 116.478 42.3149 119.543 42.4703C122.051 42.5739 124.28 40.8124 125.618 39.051C130.132 33.0931 129.575 25.322 132.027 18.6388C133.197 15.4785 134.981 12.3183 137.767 10.1942C141.668 7.24114 146.74 7.39656 150.864 9.88332C158.109 14.287 159.279 22.628 159.223 30.0365C159.112 38.8956 158.61 47.8065 158.332 56.6656C158.109 62.9343 157.774 69.5657 160.171 75.5753C162.177 80.6007 166.691 84.6935 172.71 84.9007C178.283 85.1079 183.578 82.2585 187.2 78.4247C192.216 73.0886 193.219 65.7319 192.717 58.9451C192.16 50.5005 189.875 42.0558 188.203 33.7666C186.866 27.2907 184.859 19.675 187.869 13.3544C191.659 5.37606 201.579 5.79052 208.489 9.77971C211.499 11.4894 213.784 13.7689 215.901 16.3593C217.963 18.846 220.137 21.5918 223.537 22.628C229.723 24.5449 235.574 20.193 239.364 16.152C244.213 10.9713 248.281 2.52665 256.473 1.43869C264.387 0.350729 268.79 7.44837 270.517 13.3544ZM119.32 42.3149C119.71 42.3667 120.1 42.4185 120.491 42.3667C120.045 42.4185 119.655 42.4185 119.32 42.3149Z" fill="#ffba3b"/>
<path d="M386.046 -38.0373C385.656 -38.8144 385.21 -39.6433 384.709 -40.4204C385.6 -37.5192 385.99 -34.5143 386.213 -31.5613C386.603 -26.8468 386.325 -22.1841 385.433 -17.5733C383.427 -6.90091 378.857 3.77145 371.946 12.5787C368.77 16.6715 364.868 20.5053 360.299 23.2511C356.063 25.7379 350.88 27.0849 346.143 24.9607C341.239 22.733 338.452 17.6559 336.056 13.3559C333.882 9.41848 331.82 5.27387 328.03 2.47626C324.185 -0.269537 318.891 -1.51292 314.098 -1.56473C310.42 -1.61654 306.797 -0.735806 303.732 1.23288C297.546 5.17026 294.704 12.4751 293.31 19.0029C291.75 26.3596 291.75 34.1825 293.255 41.4874C294.369 46.9272 296.208 52.2633 297.379 57.7031C298.438 62.7803 298.995 68.3237 297.044 73.2972C295.428 77.39 292.14 81.3274 287.57 82.778C283.725 83.9696 279.601 83.037 276.145 81.172C272.411 79.1515 269.29 76.1466 266.95 72.831C267.34 76.5093 268.677 80.0322 271.52 82.9334C275.811 87.3889 282.554 89.6166 288.908 88.3732C294.759 87.2335 299.998 83.3479 302.339 78.2189C305.85 70.655 302.617 62.1586 300.89 54.5429C298.883 45.9946 297.602 37.1873 297.323 28.4319C297.1 20.7643 298.438 12.1643 305.348 7.08714C312.537 1.85457 322.736 4.7558 327.25 11.698C330.873 17.2414 331.04 24.3909 335.666 29.3644C339.845 33.8717 346.867 34.7524 352.775 33.25C359.518 31.5921 364.757 26.8776 368.937 21.8523C378.968 9.83294 386.826 -4.93222 388.61 -20.2155C389.446 -26.3287 388.888 -32.2348 386.046 -38.0373Z" fill="#62BA00"/>
<path d="M267.786 7.13902C267.117 4.75587 265.835 2.68356 264.331 0.714875C263.272 -0.632122 261.99 -1.92731 260.429 -2.80804C257.977 -4.15503 255.247 -3.9478 252.739 -2.80804C249.729 -1.46104 247.221 0.714875 244.825 2.78718C242.261 5.0149 239.865 7.29444 237.134 9.31493C234.682 11.1282 232.007 12.8378 228.83 13.2005C224.26 13.6668 220.08 11.4909 216.402 9.15951C212.39 6.62094 208.711 3.87514 204.03 2.52814C198.847 1.02572 193.051 0.922107 187.924 2.68357C180.456 5.32575 177.892 13.0451 177.669 19.7801C177.447 27.1885 179.174 34.5452 180.846 41.6947C182.407 48.1706 183.744 54.802 183.8 61.4334C183.856 68.1684 182.184 76.5612 174.158 78.6853C167.972 80.3431 162.789 76.3021 159.278 71.8985C159.557 73.1419 159.947 74.3335 160.393 75.525C162.399 80.5504 166.913 84.6432 172.932 84.8504C178.505 85.0576 183.8 82.2082 187.422 78.3744C192.438 73.0383 193.441 65.6816 192.94 58.8948C192.382 50.4502 190.097 42.0055 188.425 33.7163C187.088 27.2404 185.082 19.6246 188.091 13.3041C191.881 5.32575 201.801 5.74021 208.711 9.7294C211.721 11.439 214.006 13.7186 216.124 16.309C218.186 18.7957 220.359 21.5415 223.759 22.5777C229.945 24.4946 235.797 20.1427 239.586 16.1017C244.435 10.921 248.503 2.47633 256.696 1.38838C261.823 0.714877 265.501 3.56429 267.897 7.29444C267.786 7.24263 267.786 7.19082 267.786 7.13902Z" fill="#62BA00"/>
<path d="M142.67 3.87521C138.379 4.70414 134.645 7.8644 131.859 10.8174C130.688 12.0608 129.629 13.356 129.016 14.9102C128.403 16.4126 127.957 18.0187 127.121 19.4175C125.84 21.5934 122.997 23.4067 120.267 22.4741C117.759 21.6452 116.031 19.2621 114.415 17.397C112.52 15.2729 110.402 12.8379 107.449 12.1126C103.436 11.1283 99.2004 12.2162 95.968 14.4958C89.2246 19.2621 87.5527 28.2248 86.9396 35.6333C86.2709 43.8707 87.0511 52.1599 87.8871 60.3973C88.8345 69.8781 90.2277 79.307 91.2866 88.7878C91.8439 93.6059 92.234 98.424 92.3455 103.242C92.457 107.49 92.1783 111.79 91.008 115.883C89.9491 119.613 88.0542 123.395 85.0448 126.089C82.5926 128.265 79.416 129.56 76.0164 129.768C74.5674 129.871 73.1184 129.768 71.6694 129.457C72.9512 131.011 74.5117 132.358 76.4623 133.394C81.5895 136.14 87.6084 135.052 91.8997 131.425C97.7514 126.452 98.6431 118.733 98.6431 111.79C98.6431 103.035 97.6399 94.2794 96.4696 85.5758C95.2992 76.9757 93.906 68.3756 93.0143 59.7238C92.5684 55.4756 92.234 51.2273 92.1226 46.9791C92.0111 43.0417 91.8997 38.9489 92.5684 35.0634C93.5716 29.2609 97.4727 20.2982 105.554 22.3705C112.018 24.0284 114.192 31.6441 115.251 36.9803C115.697 39.3634 116.644 42.3164 119.709 42.4719C122.217 42.5755 124.446 40.814 125.784 39.0526C130.298 33.0947 129.741 25.3236 132.193 18.6404C133.363 15.4801 135.147 12.3199 137.933 10.1957C141.834 7.24271 146.906 7.39813 151.03 9.8849C153.705 11.4909 155.544 13.6668 156.826 16.1018C155.154 9.83309 150.305 2.4246 142.67 3.87521ZM119.319 42.3164C119.709 42.3682 120.099 42.4201 120.489 42.3682C120.044 42.4201 119.654 42.4201 119.319 42.3164Z" fill="#62BA00"/>
<path d="M72.6725 30.6596C72.0594 27.4994 70.8891 24.4945 68.9385 21.8005C66.3192 18.2258 62.3623 15.9463 57.9596 14.7547C54.4485 13.8222 50.826 13.5113 47.2036 14.0812C43.5253 14.6511 40.0143 15.8427 36.5033 16.9306C29.8713 19.0029 22.2919 20.868 15.7715 17.4487C10.1984 14.5475 7.07748 8.95226 4.84826 3.61607C2.89768 -0.942992 1.56015 -5.70929 0.668457 -10.4756C1.33722 -1.77191 2.61903 7.08718 5.90714 15.221C9.19525 23.2511 15.4928 31.1259 25.6915 30.297C28.0322 30.0897 30.3172 29.4163 32.4349 28.4837C33.8839 27.9138 35.0543 27.2921 35.8345 26.8259C44.4728 22.0596 52.2193 14.5993 62.5295 19.4692C67.4895 21.8523 70.7219 25.9969 72.6725 30.6596Z" fill="#62BA00"/>
<path d="M324.743 -0.994723C332.322 2.37277 339.344 6.93183 347.648 8.7451C355.06 10.4029 362.584 9.31498 368.045 4.03061C373.395 -1.20195 376.907 -8.45501 378.857 -15.3972C380.808 -22.4949 381.086 -29.7479 379.805 -36.9492C379.749 -37.3118 379.191 -37.3118 379.024 -37.0528C378.3 -37.5191 377.185 -37.3636 376.962 -36.3275C375.402 -27.9865 373.841 -18.9201 368.045 -12.0815C362.918 -5.96825 355.116 -2.54895 346.812 -4.77668C338.285 -7.10802 331.82 -13.3249 324.297 -17.3659C317.052 -21.2515 308.414 -23.4792 300.723 -19.3864C293.589 -15.6045 287.18 -7.31525 277.873 -9.80201C270.907 -11.7189 267.229 -18.8165 260.151 -20.7334C247.277 -24.2045 239.196 -9.80201 228.217 -6.69356C224.093 -5.50198 219.913 -6.3309 215.956 -7.72971C210.996 -9.43936 206.203 -11.5117 201.355 -13.3767C199.07 -14.3093 196.729 -15.19 194.444 -16.1225C192.271 -16.9515 190.097 -17.8322 187.757 -17.9876C184.19 -18.1948 181.069 -16.537 178.617 -14.2057C176.053 -11.7707 174.27 -8.66225 171.65 -6.22729C169.143 -3.84414 164.405 -1.04653 161.173 -3.94776C158.554 -6.22729 158.275 -10.0092 155.823 -12.496C153.705 -14.6719 150.529 -15.5008 147.463 -15.19C139.494 -14.4129 134.701 -8.66224 129.128 -4.05137C126.286 -1.72003 122.886 0.559502 118.929 0.455887C114.638 0.404079 111.016 -2.39353 107.114 -3.79233C100.65 -6.07187 93.0702 -5.13933 87.1628 -1.87545C84.2648 -0.269419 81.7569 1.9065 79.8621 4.54869C79.0819 5.63664 77.9672 8.0716 76.2953 7.96798C74.6234 7.91618 73.2859 4.39326 72.5614 3.2535C68.9946 -2.49714 64.369 -8.04055 56.6781 -8.45501C49.4889 -8.81767 42.9127 -4.98391 36.4479 -2.65257C33.1598 -1.40919 29.6488 -0.373032 26.0263 -0.42484C22.1809 -0.476648 18.6141 -1.92726 15.7161 -4.20679C8.86122 -9.64659 6.79919 -18.0912 7.07784 -26.1214C7.24503 -30.5768 7.96953 -34.9805 8.69403 -39.3841C8.91695 -40.6275 6.96638 -41.7155 6.29761 -40.3167C-0.167143 -27.0021 -2.61929 -10.3719 7.52369 2.01011C11.6478 7.03545 17.6109 11.0764 24.4101 12.268C32.5468 13.7186 40.0704 10.5066 47.9284 9.21137C56.0094 7.86437 63.2543 10.3511 68.6045 16.1018C74.1776 22.0596 76.1281 30.038 76.574 37.7573C77.0755 46.3056 76.2396 54.9575 75.2364 63.4539C74.2333 72.3648 72.8958 81.2239 71.7811 90.1348C71.2238 94.5384 70.778 98.8903 70.3879 103.294C70.0535 107.231 69.4404 111.428 69.942 115.365C70.2764 117.852 71.1681 120.701 73.2859 122.359C75.5151 124.121 78.4688 123.654 80.3637 121.634C82.7043 119.147 83.8747 115.313 84.6549 112.153C85.5466 108.423 85.8253 104.537 85.7695 100.704C85.6023 92.5179 84.0976 84.3323 83.1502 76.1986C81.1439 59.0503 79.9735 41.1766 84.8221 24.391C86.8841 17.1897 90.841 9.52221 98.922 6.77641C102.489 5.58484 106.39 5.48122 109.789 7.08726C112.91 8.58968 115.474 10.921 118.818 12.0608C121.827 13.0969 124.892 12.3716 127.122 10.2475C129.518 7.96799 130.856 5.06676 133.921 3.40892C139.494 0.404082 146.85 1.49204 152.145 4.54869C158.61 8.22702 161.786 15.1692 163.012 21.8524C164.461 29.6754 163.402 37.6019 162.511 45.4249C162.009 49.8803 161.507 54.3358 161.563 58.843C161.619 62.1069 161.563 66.0961 163.291 69.0491C164.796 71.6913 168.028 72.572 170.87 71.1732C174.103 69.619 175.162 66.4069 175.384 63.2467C175.719 58.7912 175.384 54.1803 175.329 49.7249C175.217 45.2176 175.106 40.7104 174.939 36.2031C174.771 31.6959 174.548 27.1886 174.27 22.6813C174.047 18.5367 173.267 14.0813 174.103 9.93667C175.663 1.95831 185.806 -1.46099 193.497 -2.28991C197.454 -2.70437 201.522 -2.54895 205.368 -1.66822C209.603 -0.735686 213.114 1.12939 216.959 2.89085C219.969 4.28965 223.09 5.22218 226.489 4.91134C229.387 4.6523 232.118 3.71976 234.682 2.52819C240.311 -0.113996 245.326 -4.10318 251.457 -5.86463C258.869 -7.98875 265.891 -4.51764 269.848 1.38842C274.641 8.53787 275.031 17.8114 275.365 25.9452C275.755 34.9597 275.31 44.0261 273.916 52.937C273.303 56.7707 271.91 60.9153 272.467 64.8009C272.857 67.8575 274.975 71.0696 278.43 71.7949C286.121 73.4009 288.462 63.0394 289.186 58.1695C290.413 49.8803 289.242 41.4875 288.741 33.1983C288.295 26.2561 288.406 19.3656 290.747 12.6825C292.697 7.03545 296.153 1.44023 301.67 -1.77184C308.859 -6.02006 317.386 -4.2586 324.743 -0.994723Z" fill="#9FF24B"/>
<path d="M45.9215 16.2572C42.3547 16.1018 39.401 17.6042 36.3358 19.0548C33.3821 20.4536 30.3169 21.8524 27.0288 22.5259C23.8521 23.1994 20.9541 22.785 17.9447 21.8006C14.8238 20.8163 12.5945 18.9512 10.421 16.7235C10.3653 16.6717 10.3096 16.7235 10.3096 16.7753C10.9226 18.9512 12.5945 21.0235 14.3779 22.4741C16.4399 24.132 18.8921 25.2199 21.5672 25.6862C27.4746 26.6187 32.8805 24.5464 38.0077 22.1115C39.4567 21.438 41.0172 20.8163 42.4104 19.9874C43.8037 19.2102 45.0855 18.2259 46.3116 17.2415C46.7574 16.8789 46.423 16.2572 45.9215 16.2572Z" fill="#71D100"/>
<path d="M104.328 15.8944C103.157 14.9619 101.541 15.1691 100.148 15.4282C98.5873 15.739 97.1383 16.3607 95.8565 17.1896C93.07 19.0547 91.1752 21.5933 89.8934 24.5463C88.5558 27.6547 87.9985 31.0222 87.6641 34.3379C87.274 38.1199 87.4412 42.1609 88.723 45.7874C88.7787 45.9946 89.1689 46.0464 89.2246 45.7874C90.4507 39.4669 90.0605 32.7837 92.1783 26.6186C93.1257 23.9764 94.6305 21.4378 96.9154 19.6246C97.9743 18.7957 99.2004 18.0185 100.482 17.5005C101.764 16.9824 103.157 16.9306 104.328 16.3089C104.439 16.2571 104.495 16.0499 104.328 15.8944Z" fill="#71D100"/>
<path d="M96.9713 102.724C96.6369 98.5795 95.9124 94.4867 95.2994 90.3939C94.0176 81.8974 92.903 73.401 91.7326 64.8527C91.1196 60.1382 90.5065 55.4756 89.2247 50.8647C89.169 50.7611 89.0018 50.7611 89.0018 50.9165C88.9461 55.1647 89.4477 59.3093 89.9492 63.5057C90.4508 67.6503 90.9524 71.795 91.454 75.9396C92.4571 84.2288 93.2931 92.518 94.129 100.807C94.352 103.035 94.5191 105.314 94.5749 107.542C94.6306 109.822 94.5749 112.101 95.2436 114.381C95.2994 114.64 95.7452 114.692 95.8567 114.484C97.863 111.013 97.25 106.558 96.9713 102.724Z" fill="#71D100"/>
<path d="M94.1847 118.525C93.6832 119.251 93.0701 119.924 92.5686 120.701C92.1784 121.375 91.7326 122.048 91.2868 122.67C90.3393 124.069 89.3362 125.364 88.1658 126.556C87.107 127.643 85.8252 128.576 84.4319 129.25C83.0386 129.871 81.4782 130.13 80.1406 130.752C79.3604 131.115 79.4161 132.254 80.1406 132.617C83.6517 134.378 88.1658 131.477 90.3951 129.042C91.7326 127.592 92.5686 125.934 93.2931 124.172C93.6832 123.24 93.9061 122.307 94.129 121.323C94.3519 120.39 94.2962 119.51 94.4077 118.629C94.4634 118.474 94.2405 118.422 94.1847 118.525Z" fill="#71D100"/>
<path d="M122.551 32.0065C121.66 32.2138 121.102 32.8355 120.266 32.162C119.208 31.2812 118.985 29.727 118.483 28.5354C117.814 26.8776 116.978 25.3234 115.975 23.7691C115.808 23.5101 115.362 23.6137 115.362 23.9245C115.306 25.7378 115.362 27.4475 115.641 29.2607C115.864 30.6595 116.198 32.162 116.923 33.4571C117.703 34.8041 119.096 35.6849 120.712 35.7885C121.994 35.8921 123.499 35.3222 124.112 34.1825C124.836 33.1463 124 31.6957 122.551 32.0065Z" fill="#71D100"/>
<path d="M188.927 5.99929C189.15 5.74025 188.871 5.3776 188.537 5.53302C186.475 6.7764 184.915 8.22701 183.577 10.0921C182.239 11.9572 181.348 14.1331 180.79 16.309C179.787 20.5572 179.787 25.738 183.131 29.1055C183.521 29.4681 184.079 29.0537 183.967 28.6392C183.298 24.7018 182.295 20.7645 183.131 16.7235C183.967 12.8897 186.085 9.00413 188.927 5.99929Z" fill="#71D100"/>
<path d="M188.147 46.7718C187.813 44.5959 187.367 42.42 186.698 40.3477C186.419 39.4152 186.085 38.4308 185.695 37.5501C185.193 36.5139 184.58 35.5814 184.079 34.5453C184.023 34.4935 183.912 34.4935 183.912 34.5971C184.023 35.426 183.912 36.2549 183.967 37.0838C184.023 37.9646 184.134 38.8453 184.246 39.7778C184.469 41.5393 184.747 43.2489 184.915 45.0104C185.305 48.5333 185.639 52.0562 185.639 55.5791C185.639 59.102 185.36 62.6768 185.026 66.1997C184.692 69.3081 184.134 72.5202 182.518 75.266C181.738 76.613 180.568 77.5973 179.509 78.7889C178.338 80.0841 176.722 80.6022 175.106 81.2239C174.66 81.3793 174.605 81.9492 175.106 82.1564C176.667 82.6227 178.227 82.3636 179.732 81.8974C180.512 81.6383 181.236 81.3793 181.961 81.1203C182.797 80.7576 183.521 80.0841 184.134 79.4624C186.698 76.8202 187.924 73.4527 188.537 69.9816C189.819 62.2105 189.373 54.4394 188.147 46.7718Z" fill="#71D100"/>
<path d="M234.57 13.097C234.459 12.8897 234.18 12.7343 233.957 12.7343C233.289 12.7861 232.954 13.1488 232.564 13.356C231.951 13.6668 231.394 14.0813 230.781 14.3921C229.666 14.962 228.496 15.4283 227.214 15.4801C225.765 15.5319 224.316 15.2729 222.923 14.8584C222.198 14.6512 221.474 14.3403 220.805 13.9777C220.025 13.5632 219.077 13.2006 218.353 12.6825C217.963 12.3717 217.183 12.7861 217.573 13.2524C218.13 14.0295 218.52 14.7548 219.189 15.4283C219.858 16.1018 220.694 16.6717 221.53 17.1898C223.257 18.2259 225.319 18.7958 227.381 18.6922C229.22 18.5886 231.227 18.1223 232.676 17.0343C233.4 16.5163 234.069 15.8428 234.459 15.0656C234.682 14.4958 234.961 13.7705 234.57 13.097Z" fill="#71D100"/>
<path d="M307.41 1.33655C303.063 2.57993 300.054 5.99922 297.88 9.57394C295.707 13.0969 294.481 17.5005 295.317 21.5415C295.372 21.8523 295.874 21.8005 295.93 21.5415C296.487 19.6764 296.877 17.8631 297.657 16.0499C298.437 14.2366 299.162 12.4752 300.109 10.7655C302.06 7.34622 305.014 4.60042 307.577 1.59559C307.689 1.49197 307.633 1.28474 307.41 1.33655Z" fill="#71D100"/>
<path d="M296.877 43.1452C296.598 41.5392 296.431 39.9332 296.153 38.379C295.595 35.1151 295.261 31.8512 294.982 28.5355C294.982 28.3801 294.759 28.3801 294.759 28.5355C294.481 31.8512 294.481 35.2187 294.592 38.5344C294.759 41.591 295.094 45.0621 296.598 47.8597C296.766 48.1706 297.212 47.9634 297.212 47.7043C297.323 46.2019 297.1 44.6995 296.877 43.1452Z" fill="#71D100"/>
<path d="M300.779 60.967C300.723 60.8116 300.444 60.7598 300.388 60.967C299.831 63.6092 299.385 66.2514 298.939 68.9454C298.549 71.484 298.048 74.178 297.045 76.6129C296.209 78.6852 294.648 80.3431 292.642 81.5346C291.639 82.1563 290.58 82.5708 289.521 83.1407C288.629 83.6069 287.069 84.0732 286.623 84.9539C286.456 85.2648 286.567 85.5238 286.846 85.731C287.793 86.3527 289.577 85.7829 290.58 85.5238C291.862 85.213 293.032 84.5913 294.147 83.9696C296.487 82.5708 298.438 80.6539 299.553 78.2707C300.834 75.6286 301.224 72.6755 301.503 69.8261C301.949 66.8213 301.726 63.92 300.779 60.967Z" fill="#71D100"/>
<path d="M280.716 84.2804C279.49 83.4515 277.873 82.8816 276.424 82.6744C276.034 82.6226 275.867 83.037 276.146 83.2442C277.427 84.0214 278.988 84.5913 280.548 84.7985C280.883 84.8503 280.939 84.4358 280.716 84.2804Z" fill="#71D100"/>
<path d="M355.673 27.9656C355.116 28.121 354.447 28.121 353.834 28.2765C353.333 28.3801 352.887 28.5355 352.385 28.5873C351.215 28.7427 349.989 28.6909 348.874 28.6909C346.645 28.6909 344.471 28.1728 342.632 27.0331C340.403 25.7379 339.01 23.6138 337.951 21.4897C337.282 20.1427 336.613 18.7439 335.777 17.4487C334.886 16.0499 333.883 14.7547 332.935 13.4077C332.768 13.0968 332.322 13.3041 332.378 13.6149C332.768 15.48 332.935 17.345 333.437 19.1583C333.883 20.7125 334.44 22.2668 335.109 23.7692C336.39 26.515 338.23 28.7945 341.016 30.3488C343.468 31.6958 346.311 32.3174 349.153 32.2656C350.602 32.2138 351.884 31.7994 353.165 31.2295C353.723 30.9704 354.28 30.6596 354.782 30.3488C355.45 29.8825 355.729 29.3644 356.231 28.7945C356.509 28.4319 356.231 27.8102 355.673 27.9656Z" fill="#71D100"/>
<path d="M353.388 18.5884C352.051 18.5884 352.051 20.5053 353.388 20.5053C354.726 20.5053 354.726 18.5884 353.388 18.5884Z" fill="#9FF24B"/>
<path d="M365.203 10.8691C364.033 10.8691 364.033 12.5788 365.203 12.5788C366.373 12.5788 366.373 10.8691 365.203 10.8691Z" fill="#9FF24B"/>
<path d="M343.301 6.93164C340.96 6.93164 340.96 10.2991 343.301 10.2991C345.642 10.2991 345.642 6.93164 343.301 6.93164Z" fill="#71D100"/>
<path d="M343.691 17.9667C343.524 17.6559 343.022 17.2932 342.632 17.2414C342.298 17.1896 341.907 17.1378 341.573 17.086C341.127 17.0342 340.57 17.2932 340.291 17.6041C339.957 17.9149 339.734 18.3812 339.734 18.7956C339.734 19.2101 339.901 19.6764 340.291 19.9872C340.626 20.2462 341.127 20.5571 341.573 20.5053C341.907 20.4535 342.298 20.4017 342.632 20.3499C342.743 20.2981 342.911 20.2462 343.022 20.1944C343.245 20.0908 343.412 19.9354 343.524 19.78C343.747 19.5209 343.914 19.1583 343.914 18.7956C343.914 18.4848 343.858 18.2257 343.691 17.9667Z" fill="#71D100"/>
<path d="M372.783 9.62573C370.944 9.62573 370.944 12.3197 372.783 12.3197C374.622 12.2679 374.622 9.62573 372.783 9.62573Z" fill="#71D100"/>
<path d="M179.23 26.6186C178.617 26.3078 177.892 26.3078 177.279 26.6186C177.112 26.7222 177 26.7741 176.833 26.8777C175.774 27.4476 175.774 28.8982 176.833 29.468C177 29.5198 177.112 29.6235 177.279 29.7271C177.892 30.0379 178.617 30.0379 179.23 29.7271C179.787 29.4162 180.177 28.8464 180.177 28.1729C180.121 27.5512 179.787 26.9813 179.23 26.6186Z" fill="#71D100"/>
<path d="M177.056 9.67745C176.722 9.36661 176.276 9.00395 175.719 9.05576C175.162 9.05576 174.771 9.3148 174.381 9.67745C174.158 9.88468 173.991 10.1955 173.88 10.4546C173.768 10.8172 173.824 11.2317 173.991 11.5943C174.103 11.9052 174.326 12.1124 174.604 12.3196C174.939 12.5269 175.329 12.7341 175.775 12.6823C176.443 12.6305 177.056 12.3714 177.447 11.8016C177.781 11.1799 177.669 10.2473 177.056 9.67745Z" fill="#71D100"/>
<path d="M86.4383 71.3286C84.432 71.3286 84.432 74.2298 86.4383 74.2298C88.4446 74.2298 88.4446 71.3286 86.4383 71.3286Z" fill="#71D100"/>
<path d="M89.1692 110.184C88.6676 109.77 87.9431 109.614 87.3301 109.977C87.1071 110.132 86.8285 110.236 86.6613 110.443C86.2155 110.858 86.0483 111.428 86.2155 111.946C86.2155 112.205 86.3269 112.464 86.5498 112.619C86.7728 112.826 86.9957 112.93 87.2743 112.93C87.8316 113.034 88.4447 112.878 88.8905 112.516C89.0577 112.36 89.2249 112.101 89.3921 111.894C89.7822 111.376 89.6707 110.599 89.1692 110.184Z" fill="#71D100"/>
<path d="M85.045 90.8599C84.7663 90.5491 84.3205 90.29 83.8746 90.29C83.4288 90.29 82.9829 90.4455 82.6486 90.7563C82.3142 91.0671 82.2027 91.4816 82.147 91.8443C82.147 92.0515 82.147 92.2587 82.2584 92.4141C82.3142 92.5178 82.3699 92.6732 82.4256 92.8286C82.5928 93.0876 82.7043 93.1394 82.9829 93.3467C83.0944 93.3985 83.2059 93.4503 83.3173 93.4503C83.4845 93.5021 83.6517 93.5021 83.8746 93.4503C84.1533 93.3985 84.4319 93.2949 84.6548 93.0876C84.822 92.9322 84.9335 92.7768 84.9892 92.5696C85.2121 92.3623 85.3236 92.1033 85.3793 91.7925C85.4351 91.5334 85.3236 91.1708 85.045 90.8599Z" fill="#71D100"/>
<path d="M281.83 26.515C281.552 22.8367 280.716 19.003 278.765 15.7391C278.598 15.48 278.208 15.6355 278.208 15.8945C278.208 22.5259 278.431 29.0536 277.483 35.685C276.48 42.4718 275.143 49.2068 274.585 55.9936C274.418 57.9104 274.251 59.8791 274.362 61.796C274.418 63.7129 274.585 66.1478 276.48 67.3394C277.037 67.7021 277.762 67.4948 278.208 67.1322C278.821 66.6141 279.099 65.7334 279.378 65.0081C279.712 64.1273 279.601 63.0912 279.657 62.1587C279.768 60.449 279.712 58.7394 279.824 57.0815C280.047 53.6622 280.381 50.2429 280.771 46.8754C281.44 40.1404 282.388 33.3018 281.83 26.515Z" fill="#DCFFD6"/>
<path d="M287.849 77.8044C285.787 77.3381 283.669 77.7526 281.551 77.4418C280.492 77.2863 279.489 76.9755 278.43 76.7164C277.371 76.4574 276.089 76.1984 275.142 75.7321C274.863 75.5767 274.64 75.8875 274.808 76.1466C275.644 77.0791 276.257 77.908 277.427 78.6333C278.542 79.3068 279.712 79.6695 280.994 79.8767C283.334 80.2912 286.344 80.4466 288.071 78.6333C288.35 78.3743 288.239 77.908 287.849 77.8044Z" fill="#DCFFD6"/>
<path d="M294.759 68.1684C293.979 70.2925 292.976 72.5202 293.143 74.7998C293.143 75.1106 293.645 75.266 293.812 74.9552C295.094 73.0383 295.316 70.6034 295.707 68.4274C295.818 67.8575 294.982 67.5985 294.759 68.1684Z" fill="#DCFFD6"/>
<path d="M277.093 3.20151C276.703 -0.217788 273.749 -3.11901 271.353 -5.50216C268.733 -8.09254 265.557 -9.9058 262.101 -11.3564C261.6 -11.5636 260.987 -10.9938 261.433 -10.5793C263.996 -8.29977 266.393 -5.81301 268.789 -3.37805C269.959 -2.18648 271.018 -0.943094 272.133 0.352096C273.247 1.59548 274.362 2.94247 275.811 3.87501C276.313 4.18585 277.149 3.7714 277.093 3.20151Z" fill="#DCFFD6"/>
<path d="M353.556 1.49201C351.995 1.23297 350.435 1.28478 348.874 1.18117C347.425 1.07755 346.032 0.766707 344.695 0.404053C341.407 -0.528484 338.397 -2.23814 335.388 -3.74056C334.83 -4.0514 334.273 -3.48152 334.552 -2.96344C335.889 -0.269446 338.341 1.54382 341.184 2.83901C343.97 4.08239 347.258 4.96313 350.379 4.96313C351.94 4.96313 353.834 4.85951 355.005 3.82336C356.342 2.7354 354.893 1.69924 353.556 1.49201Z" fill="#DCFFD6"/>
<path d="M168.306 64.5418C167.86 62.9875 167.136 61.4851 166.857 59.8791C166.3 56.8224 166.523 53.2995 166.802 50.0874C167.192 46.2537 167.582 42.4199 167.749 38.5344C167.972 34.1307 167.972 29.7271 167.47 25.3234C167.192 23.1475 166.913 20.9198 166.3 18.7957C165.687 16.6198 164.795 14.4438 163.904 12.3197C163.792 12.0607 163.458 12.1643 163.513 12.4233C164.294 16.3607 164.294 20.4535 164.349 24.4427C164.405 28.4319 164.182 32.4211 163.792 36.3584C163.402 40.244 162.789 44.0778 162.232 47.9633C161.73 51.4344 161.173 54.9574 161.451 58.4285C161.73 61.796 162.399 66.1478 165.91 67.9611C166.746 68.3755 167.86 68.1683 168.306 67.3912C168.752 66.7177 168.529 65.3189 168.306 64.5418Z" fill="#DCFFD6"/>
<path d="M160.783 3.56423C160.226 1.75097 158.609 0.352162 157.105 -0.787605C155.6 -1.97918 153.817 -2.8081 151.922 -3.42979C151.699 -3.4816 151.476 -3.17075 151.699 -3.01533C153.092 -1.82375 154.43 -0.580373 155.823 0.663009C157.16 1.90639 158.219 3.357 159.78 4.34135C160.281 4.60038 160.95 4.08231 160.783 3.56423Z" fill="#DCFFD6"/>
<path d="M222.142 -1.66821C220.303 -2.23809 218.241 -1.72002 216.291 -1.97905C214.34 -2.2899 212.501 -2.9634 210.606 -3.58509C210.272 -3.68871 209.882 -3.27425 210.105 -2.9634C211.498 -1.25375 213.616 -0.32121 215.845 0.0932509C217.907 0.507712 220.805 0.818555 222.365 -0.787481C222.7 -1.04652 222.533 -1.51279 222.142 -1.66821Z" fill="#DCFFD6"/>
<path d="M78.0228 72.3648C77.5212 74.0745 76.6853 75.7323 76.1837 77.442C75.6821 79.0998 75.1806 80.7577 74.679 82.4155C73.6758 85.783 72.7841 89.1505 71.9482 92.5698C70.4992 98.3204 69.3846 104.278 70.2763 110.184C70.7221 113.241 72.0596 116.608 75.1805 118.111C75.5707 118.318 76.128 118.059 76.128 117.593C76.0165 115.002 75.2363 112.36 74.7347 109.822C74.2331 107.18 74.2889 104.486 74.5118 101.843C75.0134 95.7818 76.3509 89.7722 77.1311 83.7107C77.354 81.8974 77.577 80.0842 77.7999 78.2709C78.0228 76.3022 77.9671 74.3853 78.19 72.4166C78.19 72.313 78.0785 72.2612 78.0228 72.3648Z" fill="#DCFFD6"/>
<path d="M78.8588 49.5177C78.8588 49.414 78.6916 49.414 78.6916 49.5177C78.4129 52.7297 78.0785 55.9418 77.9113 59.2057C77.7441 62.4177 77.354 65.6816 77.6327 68.8937C77.6327 69.1527 78.1343 69.2563 78.19 68.9455C78.803 65.7852 78.6916 62.5732 78.803 59.3611C78.8588 57.7032 78.9145 56.0454 78.9702 54.4394C78.9702 52.7815 78.8588 51.1755 78.8588 49.5177Z" fill="#DCFFD6"/>
<path d="M48.8199 4.8076C46.8693 4.44495 44.6401 4.85941 42.6338 5.17025C40.739 5.4811 38.8999 5.89556 37.005 6.1546C33.3268 6.62086 29.4814 6.82809 25.8032 6.1546C22.7937 5.58471 19.8957 4.60037 17.2206 3.25337C14.5456 1.90638 11.759 -0.0105037 10.0871 -2.39365C9.91992 -2.60088 9.47408 -2.49727 9.58554 -2.18642C10.3658 0.14492 11.3689 2.16541 13.1523 4.03049C14.9357 5.89556 17.2206 7.34617 19.6171 8.38232C25.4688 10.9209 32.2679 11.0763 38.5098 10.0402C40.4046 9.72932 42.2994 9.41848 44.0828 8.84859C45.8105 8.27871 47.8168 7.5534 49.1543 6.31002C49.7116 5.89556 49.5444 4.96302 48.8199 4.8076Z" fill="#DCFFD6"/>
<path d="M114.192 6.98348C113.691 5.17021 111.071 4.23768 109.344 3.6678C108.341 3.35695 107.393 3.14972 106.279 3.09791C105.777 3.09791 105.275 3.04611 104.774 3.14972C104.217 3.25334 103.771 3.51237 103.269 3.61599C103.158 3.66779 103.158 3.82322 103.269 3.87502C104.161 4.03045 105.053 4.44491 105.888 4.70395C106.78 4.96299 107.672 5.27383 108.564 5.63648C110.18 6.25817 111.684 7.70878 113.468 7.86421C113.969 7.91601 114.304 7.39794 114.192 6.98348Z" fill="#DCFFD6"/>
</g>
<g clip-path="url(#clip1_13_2016)">
<path d="M236.841 116.612C236.081 115.065 235.493 113.415 235.044 111.661C233.973 107.57 233.351 103.479 232.867 99.2508C232.625 97.0849 232.314 94.8504 231.657 92.7877C231.415 92.1689 231.381 91 230.793 91C229.238 91 229.446 95.3316 229.065 96.8787C228.478 99.0789 227.96 107.226 223.64 117.746C222.119 121.493 210.992 138.373 216.625 149.821C219.113 154.909 224.124 158.106 229.169 158.828C234.456 159.619 239.502 157.35 243.096 152.881C253.705 139.576 239.813 122.972 237.912 119.328C237.463 118.537 237.117 117.609 236.841 116.612Z" fill="#ffba3b"/>
<path d="M236.842 116.612C236.082 115.065 235.494 113.415 235.045 111.661C233.974 107.57 233.352 103.479 232.868 99.2507C232.626 97.0849 231.797 90.8281 230.794 90.9656C230.622 91 230.449 99.1476 230.725 102.482C231.14 107.02 231.727 111.558 232.591 115.993C233.317 119.74 234.146 123.419 235.529 126.925C236.911 130.432 238.501 133.87 239.606 137.548C240.574 140.745 241.231 144.424 240.228 147.724C239.157 151.231 236.911 153.637 233.835 154.875C231.036 155.975 227.684 156.215 224.885 155.115C219.771 153.121 216.73 148.446 215.071 142.877C215.105 145.317 215.555 147.655 216.626 149.821C219.114 154.909 224.125 158.106 229.17 158.828C234.457 159.619 239.503 157.35 243.097 152.881C253.706 139.576 239.814 122.972 237.913 119.328C237.464 118.537 237.118 117.609 236.842 116.612Z" fill="#62BA00"/>
<path d="M228.962 114.377C229.135 113.002 229.653 111.421 229.204 110.08C229.066 109.702 228.686 109.392 228.271 109.564C226.37 110.252 226.75 112.761 225.161 116.44C224.331 118.331 221.256 123.728 219.597 127.613C217.524 132.426 214.241 140.401 217.178 145.558C219.528 149.683 225.022 150.852 227.96 146.693C229.584 144.389 229.722 141.501 229.549 138.751C229.342 135.52 229.135 132.288 228.962 129.022C228.755 125.756 228.409 122.49 228.444 119.224C228.513 117.609 228.755 116.027 228.962 114.377Z" fill="#9FF24B"/>
<path d="M243.856 141.055C243.684 138.476 243.096 136.001 242.336 133.595C241.541 131.085 240.608 128.61 239.64 126.203C238.707 123.934 237.602 121.322 236.047 119.5C235.874 119.293 235.632 119.534 235.666 119.775C235.943 122.078 236.841 124.45 237.567 126.65C238.327 128.988 239.122 131.291 239.813 133.663C240.47 135.829 241.092 138.064 241.334 140.333C241.472 141.467 241.472 142.567 241.368 143.702C241.299 144.733 241.161 145.868 241.472 146.865C241.576 147.208 241.921 147.449 242.232 147.208C243.995 146.005 243.995 143.049 243.856 141.055Z" fill="#71D100"/>
<path d="M241.816 148.308C241.782 147.965 241.436 147.793 241.194 148.033C240.019 149.133 239.501 150.99 238.534 152.365C237.531 153.774 236.253 155.287 234.94 156.318C234.801 156.422 234.87 156.765 235.078 156.662C235.907 156.284 236.702 156.043 237.462 155.425C238.188 154.84 238.914 154.187 239.536 153.431C240.607 152.124 242.024 150.165 241.816 148.308Z" fill="#71D100"/>
<path d="M227.786 124.622C227.614 123.694 227.095 122.972 226.784 122.146C226.439 121.218 225.264 121.768 225.229 122.628C225.195 123.453 224.676 124.381 224.365 125.137C224.02 125.997 223.501 126.822 223.018 127.578C221.808 129.503 220.633 131.463 219.804 133.629C219.078 135.554 218.629 137.479 218.491 139.542C218.352 141.57 218.732 144.664 220.599 145.558C221.462 146.349 222.707 146.864 223.743 146.314C224.815 145.73 224.78 144.389 224.711 143.255C224.815 142.705 224.815 142.155 224.78 141.501C224.642 140.504 224.642 140.264 224.711 140.779C224.676 140.539 224.676 140.298 224.676 140.057C224.676 139.714 224.676 139.37 224.711 139.026C224.711 139.129 224.884 138.098 224.884 137.995C224.953 137.617 225.056 137.238 225.16 136.895C225.471 135.863 225.678 135.52 226.128 134.351C226.957 132.151 227.717 130.122 227.89 127.681C227.925 126.753 227.959 125.619 227.786 124.622Z" fill="#DCFFD6"/>
<path d="M230.724 151.471C230.517 149.924 228.72 150.543 227.753 150.44C226.82 150.337 225.299 148.79 224.47 149.546L224.262 149.718C223.951 149.993 223.882 150.577 223.951 150.99C224.331 152.778 225.679 153.912 227.269 154.084C228.616 154.222 230.966 153.431 230.724 151.471Z" fill="#DCFFD6"/>
<path d="M234.11 133.216C233.799 132.185 233.385 131.188 232.728 130.26C232.14 129.469 231.346 128.954 230.689 129.916C229.48 131.704 229.065 134.076 228.477 136.173C227.683 139.061 226.473 143.117 228.132 145.868C228.719 146.796 229.756 147.415 230.758 147.208C231.518 147.071 232.175 146.452 232.693 145.765C234.871 142.739 235.147 136.826 234.11 133.216Z" fill="#B3F76A"/>
</g>
<defs>
<clipPath id="clip0_13_2016">
<rect width="389" height="182" fill="white" transform="translate(0 -47)"/>
</clipPath>
<clipPath id="clip1_13_2016">
<rect width="32" height="68" fill="white" transform="translate(215 91)"/>
</clipPath>
</defs>
</svg>
