<svg width="221" height="76" viewBox="0 0 221 76" fill="none" xmlns="http://www.w3.org/2000/svg">
<path d="M113.53 18.4575C102.901 12.3494 90.2028 11.2897 78.3226 10.4762C57.2763 8.96949 33.7882 9.93023 16.1187 23.0316C8.18867 28.8707 -1.89077 40.0642 4.32705 50.675C9.18825 58.9707 20.2505 58.0346 28.3061 57.098C33.3816 56.56 38.364 56.1284 43.5191 56.7878C48.9802 57.527 54.2881 58.978 59.6028 60.5287C70.2386 63.73 80.8411 67.9357 91.9496 69.2014C103.258 70.4538 117.174 68.7265 124.426 58.7232C127.639 54.3002 128.691 49.0188 128.14 43.7437C128.233 43.6373 128.233 43.6373 128.227 43.5375C130.443 33.1676 121.764 23.2216 113.53 18.4575Z" fill="#ffba3b"/>
<path d="M120.606 23.8999C121.318 27.0597 121.437 30.359 120.951 33.5984C119.932 40.8821 116.299 48.0389 110.152 52.0557C99.401 59.1848 84.7007 56.6547 72.8208 54.3379C61.4464 52.0878 50.2851 48.5205 38.6175 49.3967C27.848 50.2132 16.1669 52.3931 5.5443 49.3914C4.82593 49.1385 4.00779 48.8923 3.28942 48.6394C3.53543 49.3245 3.87459 49.9033 4.22038 50.5819C9.18799 58.9707 20.2503 58.0346 28.3059 57.098C33.3813 56.56 38.3637 56.1284 43.5188 56.7878C48.9799 57.527 54.2879 58.978 59.6025 60.5287C70.2384 63.73 80.8408 67.9357 91.9493 69.2014C103.257 70.4538 117.173 68.7265 124.426 58.7232C127.639 54.3002 128.691 49.0188 128.14 43.7437C128.233 43.6373 128.233 43.6373 128.226 43.5375C129.744 36.2207 125.967 29.1558 120.606 23.8999Z" fill="#62BA00"/>
<path d="M20.1554 26.4714C17.2549 28.0674 14.2878 30.1689 12.8971 33.3682C11.4264 36.8735 12.683 40.6986 15.4498 43.1203C20.6576 47.5846 28.6932 46.3486 34.9794 45.9306C42.1635 45.4528 49.2279 44.6823 56.4253 44.4041C59.8245 44.2783 63.1238 44.1591 66.4431 44.3392C69.9686 44.6058 73.5139 45.1718 77.0394 45.4385C79.454 45.5785 84.9218 46.4176 85.2348 43.5906C86.8733 30.5531 55.6464 7.0735 20.1554 26.4714Z" fill="#9FF24B"/>
<path d="M57.3178 35.2245C53.1014 29.0907 45.4585 28.697 38.7401 28.6427C32.7267 28.6418 23.7798 29.7379 19.5018 34.7328C18.5703 35.7969 19.1088 37.8658 20.6254 38.0656C23.5588 38.4718 26.5124 37.6741 29.3994 37.3818C32.5857 37.0697 35.6789 36.864 38.7853 36.8578C41.7919 36.8583 44.6322 37.371 47.5723 37.877C50.7185 38.4695 53.5124 38.2837 56.5657 37.4793C57.5569 37.3132 57.8697 35.9895 57.3178 35.2245Z" fill="#DCFFD6"/>
<path d="M74.4806 37.0899C73.2301 36.3713 71.8133 36.1649 70.3965 35.9584C69.7912 35.8984 69.1792 35.7387 68.4874 35.8849C68.1881 35.9048 67.9951 36.0179 67.7024 36.1376C67.6026 36.1442 67.5095 36.2506 67.4164 36.357C67.3299 36.5632 67.2234 36.4701 67.3099 36.2639C66.5051 36.2172 66.3851 37.4278 67.0037 37.6874C67.2166 37.8736 67.4493 38.3593 67.7685 38.6387C68.3006 39.1044 69.019 39.3573 69.6376 39.6168C70.9812 40.229 72.3048 40.5419 73.715 40.6485C75.7239 40.7154 75.9372 37.895 74.4806 37.0899Z" fill="#DCFFD6"/>
<path d="M218.202 18.3C214.202 11.3 207.202 6.30003 199.702 3.50003C192.002 0.600033 183.102 0.100033 175.102 2.10003C173.702 2.50003 172.202 2.90003 170.702 3.50003C162.802 6.00003 155.302 10.4 149.602 15.8C144.102 21 135.802 30.5 141.602 38.1C146.702 44.7 155.502 48.4 163.402 49.7C172.102 51.2 180.902 50.6 189.602 49C194.002 48.2 198.402 47.1 202.702 45.8C206.602 44.7 210.602 43.4 213.902 41.1C221.802 35.8 222.802 26.4 218.202 18.3Z" fill="#ffba3b"/>
<path d="M218.201 18.3C216.801 15.8 215.001 13.6 212.901 11.7C214.801 15.9 215.501 20.4 214.501 25C212.701 32.9 205.501 39.6 198.501 42C190.601 44.7 181.501 45.3999 173.101 45.7999C163.401 46.2999 151.301 44.6 143.601 37.9C141.401 36 139.601 32 140.001 29.2999C139.201 32.2999 139.501 35.2999 141.601 38C146.701 44.5999 155.501 48.2999 163.401 49.5999C172.101 51.0999 180.901 50.5 189.601 48.9C194.001 48.1 198.401 47 202.701 45.7C206.601 44.6 210.601 43.2999 213.901 41C221.801 35.7999 222.801 26.4 218.201 18.3Z" fill="#62BA00"/>
<path d="M181.102 7.40006C178.202 6.50006 169.502 8.00006 167.802 8.40006C163.902 9.40006 160.202 12.0001 157.202 14.6001C154.302 17.1001 151.902 20.2001 150.302 23.7001C148.502 27.8001 147.302 40.6001 156.902 42.0001C164.202 43.1001 167.902 31.4001 170.202 25.5001C172.602 19.4001 175.602 14.4001 181.602 11.4001C183.302 10.5001 182.702 7.90006 181.102 7.40006Z" fill="#9FF24B"/>
<path d="M201.401 11.1999C200.801 10.8999 200.101 11.4999 200.501 12.0999C201.701 14.0999 201.301 16.9999 200.801 19.2999C200.201 21.8999 198.101 23.2999 196.601 25.1999C195.801 26.1999 196.101 27.5999 197.301 28.0999C201.801 29.6999 205.201 24.6999 206.001 20.7999C207.001 16.4999 205.201 12.9999 201.401 11.1999Z" fill="#9FF24B"/>
<path d="M170.3 13.8C165 14 160.6 15.9 157.1 20.2C153.8 24.2 151.3 30.5 153.9 35.5C155.1 37.8 158.5 37.1 159.1 34.8C160.1 31.1 160 27.5 162 24.1C163.8 20.9 167.1 17.6 170.6 16.5C172 16 171.8 13.8 170.3 13.8Z" fill="#DCFFD6"/>
</svg>
