<svg width="20" height="21" viewBox="0 0 20 21" fill="none" xmlns="http://www.w3.org/2000/svg">
<g clip-path="url(#clip0_60_10231)">
<path d="M9.99998 2.30184C12.6701 2.30184 12.9864 2.312 14.0408 2.36011C15.0158 2.40461 15.5453 2.56752 15.8977 2.70443C16.3644 2.88583 16.6976 3.10257 17.0475 3.45248C17.3974 3.80239 17.6142 4.13555 17.7955 4.60229C17.9325 4.9547 18.0954 5.48419 18.1399 6.45914C18.188 7.51364 18.1982 7.82989 18.1982 10.5C18.1982 13.1701 18.188 13.4864 18.1399 14.5409C18.0954 15.5158 17.9325 16.0453 17.7955 16.3978C17.6142 16.8645 17.3974 17.1976 17.0475 17.5476C16.6976 17.8975 16.3644 18.1142 15.8977 18.2956C15.5453 18.4325 15.0158 18.5954 14.0408 18.6399C12.9865 18.688 12.6703 18.6982 9.99998 18.6982C7.32969 18.6982 7.01344 18.688 5.95914 18.6399C4.98415 18.5954 4.45466 18.4325 4.10229 18.2956C3.63551 18.1142 3.30235 17.8975 2.95244 17.5476C2.60253 17.1976 2.38579 16.8645 2.20443 16.3978C2.06748 16.0453 1.90457 15.5158 1.86007 14.5409C1.81196 13.4864 1.8018 13.1701 1.8018 10.5C1.8018 7.82989 1.81196 7.51364 1.86007 6.45918C1.90457 5.48419 2.06748 4.9547 2.20443 4.60229C2.38579 4.13555 2.60253 3.80239 2.95244 3.45248C3.30235 3.10257 3.63551 2.88583 4.10229 2.70443C4.45466 2.56752 4.98415 2.40461 5.9591 2.36011C7.0136 2.312 7.32985 2.30184 9.99998 2.30184ZM9.99998 0.5C7.28412 0.5 6.94362 0.511512 5.87701 0.560178C4.81259 0.608764 4.08569 0.777786 3.44958 1.02501C2.79199 1.28056 2.23432 1.6225 1.67839 2.17843C1.12246 2.73436 0.780524 3.29203 0.524967 3.94962C0.277746 4.58573 0.108725 5.31263 0.060138 6.37705C0.0114719 7.44362 0 7.78416 0 10.5C0 13.2159 0.0114719 13.5564 0.060138 14.623C0.108725 15.6874 0.277746 16.4143 0.524967 17.0504C0.780524 17.708 1.12246 18.2657 1.67839 18.8216C2.23432 19.3775 2.79199 19.7195 3.44958 19.975C4.08569 20.2223 4.81259 20.3913 5.87701 20.4399C6.94362 20.4885 7.28412 20.5 9.99998 20.5C12.7158 20.5 13.0564 20.4885 14.1229 20.4399C15.1874 20.3913 15.9143 20.2223 16.5504 19.975C17.208 19.7195 17.7656 19.3775 18.3216 18.8216C18.8775 18.2657 19.2194 17.708 19.475 17.0504C19.7222 16.4143 19.8912 15.6874 19.9398 14.623C19.9885 13.5564 20 13.2159 20 10.5C20 7.78416 19.9885 7.44362 19.9398 6.37705C19.8912 5.31263 19.7222 4.58573 19.475 3.94962C19.2194 3.29203 18.8775 2.73436 18.3216 2.17843C17.7656 1.6225 17.208 1.28056 16.5504 1.02501C15.9143 0.777786 15.1874 0.608764 14.1229 0.560178C13.0564 0.511512 12.7158 0.5 9.99998 0.5ZM9.99998 5.36487C7.16393 5.36487 4.86483 7.66397 4.86483 10.5C4.86483 13.3361 7.16393 15.6352 9.99998 15.6352C12.836 15.6352 15.1351 13.3361 15.1351 10.5C15.1351 7.66397 12.836 5.36487 9.99998 5.36487ZM9.99998 13.8334C8.15904 13.8334 6.66663 12.341 6.66663 10.5C6.66663 8.65908 8.15904 7.16667 9.99998 7.16667C11.8409 7.16667 13.3333 8.65908 13.3333 10.5C13.3333 12.341 11.8409 13.8334 9.99998 13.8334ZM16.538 5.16199C16.538 5.82474 16.0008 6.36201 15.338 6.36201C14.6753 6.36201 14.138 5.82474 14.138 5.16199C14.138 4.49924 14.6753 3.962 15.338 3.962C16.0008 3.962 16.538 4.49924 16.538 5.16199Z" fill="url(#paint0_linear_60_10231)"/>
<path d="M9.99998 2.30184C12.6701 2.30184 12.9864 2.312 14.0408 2.36011C15.0158 2.40461 15.5453 2.56752 15.8977 2.70443C16.3644 2.88583 16.6976 3.10257 17.0475 3.45248C17.3974 3.80239 17.6142 4.13555 17.7955 4.60229C17.9325 4.9547 18.0954 5.48419 18.1399 6.45914C18.188 7.51364 18.1982 7.82989 18.1982 10.5C18.1982 13.1701 18.188 13.4864 18.1399 14.5409C18.0954 15.5158 17.9325 16.0453 17.7955 16.3978C17.6142 16.8645 17.3974 17.1976 17.0475 17.5476C16.6976 17.8975 16.3644 18.1142 15.8977 18.2956C15.5453 18.4325 15.0158 18.5954 14.0408 18.6399C12.9865 18.688 12.6703 18.6982 9.99998 18.6982C7.32969 18.6982 7.01344 18.688 5.95914 18.6399C4.98415 18.5954 4.45466 18.4325 4.10229 18.2956C3.63551 18.1142 3.30235 17.8975 2.95244 17.5476C2.60253 17.1976 2.38579 16.8645 2.20443 16.3978C2.06748 16.0453 1.90457 15.5158 1.86007 14.5409C1.81196 13.4864 1.8018 13.1701 1.8018 10.5C1.8018 7.82989 1.81196 7.51364 1.86007 6.45918C1.90457 5.48419 2.06748 4.9547 2.20443 4.60229C2.38579 4.13555 2.60253 3.80239 2.95244 3.45248C3.30235 3.10257 3.63551 2.88583 4.10229 2.70443C4.45466 2.56752 4.98415 2.40461 5.9591 2.36011C7.0136 2.312 7.32985 2.30184 9.99998 2.30184ZM9.99998 0.5C7.28412 0.5 6.94362 0.511512 5.87701 0.560178C4.81259 0.608764 4.08569 0.777786 3.44958 1.02501C2.79199 1.28056 2.23432 1.6225 1.67839 2.17843C1.12246 2.73436 0.780524 3.29203 0.524967 3.94962C0.277746 4.58573 0.108725 5.31263 0.060138 6.37705C0.0114719 7.44362 0 7.78416 0 10.5C0 13.2159 0.0114719 13.5564 0.060138 14.623C0.108725 15.6874 0.277746 16.4143 0.524967 17.0504C0.780524 17.708 1.12246 18.2657 1.67839 18.8216C2.23432 19.3775 2.79199 19.7195 3.44958 19.975C4.08569 20.2223 4.81259 20.3913 5.87701 20.4399C6.94362 20.4885 7.28412 20.5 9.99998 20.5C12.7158 20.5 13.0564 20.4885 14.1229 20.4399C15.1874 20.3913 15.9143 20.2223 16.5504 19.975C17.208 19.7195 17.7656 19.3775 18.3216 18.8216C18.8775 18.2657 19.2194 17.708 19.475 17.0504C19.7222 16.4143 19.8912 15.6874 19.9398 14.623C19.9885 13.5564 20 13.2159 20 10.5C20 7.78416 19.9885 7.44362 19.9398 6.37705C19.8912 5.31263 19.7222 4.58573 19.475 3.94962C19.2194 3.29203 18.8775 2.73436 18.3216 2.17843C17.7656 1.6225 17.208 1.28056 16.5504 1.02501C15.9143 0.777786 15.1874 0.608764 14.1229 0.560178C13.0564 0.511512 12.7158 0.5 9.99998 0.5ZM9.99998 5.36487C7.16393 5.36487 4.86483 7.66397 4.86483 10.5C4.86483 13.3361 7.16393 15.6352 9.99998 15.6352C12.836 15.6352 15.1351 13.3361 15.1351 10.5C15.1351 7.66397 12.836 5.36487 9.99998 5.36487ZM9.99998 13.8334C8.15904 13.8334 6.66663 12.341 6.66663 10.5C6.66663 8.65908 8.15904 7.16667 9.99998 7.16667C11.8409 7.16667 13.3333 8.65908 13.3333 10.5C13.3333 12.341 11.8409 13.8334 9.99998 13.8334ZM16.538 5.16199C16.538 5.82474 16.0008 6.36201 15.338 6.36201C14.6753 6.36201 14.138 5.82474 14.138 5.16199C14.138 4.49924 14.6753 3.962 15.338 3.962C16.0008 3.962 16.538 4.49924 16.538 5.16199Z" fill="#ffba3b"/>
</g>
<defs>
<linearGradient id="paint0_linear_60_10231" x1="10" y1="2.23913" x2="10" y2="16.1522" gradientUnits="userSpaceOnUse">
<stop stop-color="#D8F71B"/>
<stop offset="1" stop-color="#A0F115"/>
</linearGradient>
<clipPath id="clip0_60_10231">
<rect width="20" height="20" fill="white" transform="translate(0 0.5)"/>
</clipPath>
</defs>
</svg>
