<svg width="300" height="110" viewBox="0 0 300 110" fill="none" xmlns="http://www.w3.org/2000/svg">
<path d="M9.60863 30.8079C16.31 37.6591 25.8966 41.7234 35.4832 41.4137C36.9258 41.375 38.3219 41.1815 39.6715 40.9105C40.0438 40.8331 40.4626 40.7557 40.8349 40.6783C43.1618 40.1751 45.5352 39.4396 47.862 38.859C49.7235 38.3945 51.585 38.0462 53.493 37.9688C60.6597 37.5817 66.1976 43.0007 71.1305 47.5295C75.8773 51.9421 79.8795 56.9741 84.3005 61.6577C88.2096 65.7607 92.9098 68.5863 98.5408 69.3604C109.058 70.8313 119.389 66.1864 127.813 60.2642C132.792 56.7805 137.771 52.7937 143.682 51.1293C149.871 49.3874 156.014 51.168 160.993 55.0387C170.999 62.8963 173.745 75.9794 179.236 86.8562C184.355 96.9975 192.359 106.403 203.854 108.919C208.74 109.964 213.859 109.655 218.42 107.565C222.888 105.552 226.517 102.068 229.449 98.1587C232.94 93.5913 235.592 88.4432 238.338 83.4499C241.828 77.0245 245.318 70.5991 248.855 64.1737C250.577 61.0384 252.252 57.9418 253.974 54.8065C255.882 51.2841 257.604 47.4521 262.211 47.3359C268.308 47.1811 273.008 52.3292 279.058 52.6001C288.877 52.9872 296.137 43.1168 298.091 34.369C299.022 30.3434 299.487 26.163 299.767 22.06C300.046 17.9183 300.185 13.5444 299.301 9.48011C298.836 7.35121 297.952 4.48686 295.485 4.09979H295.439C266.912 2.89986 238.384 1.97088 209.857 1.39027C181.702 0.770952 153.501 0.5 125.3 0.5C97.0981 0.5 68.8967 0.848367 40.6953 1.42898C33.4821 1.58381 26.2223 1.73864 19.0091 1.93217C14.3089 2.0483 8.53828 1.62251 4.5361 4.6804C0.347774 7.8544 0.440848 13.6992 1.88349 18.2667C3.32614 22.989 6.11836 27.3242 9.60863 30.8079Z" fill="#ffba3b"/>
<path d="M295.485 35.4915C293.391 38.0075 290.925 40.4073 287.714 41.9943C285.992 42.8846 283.851 43.6588 281.757 43.4652C279.802 43.2717 278.267 42.2653 276.777 41.3363C273.52 39.3622 269.797 37.8914 265.655 38.3946C262.398 38.7816 259.559 40.3686 257.232 42.2653C251.741 46.7941 248.436 53.0646 245.505 58.9095C239.781 70.3668 234.289 82.0565 225.121 91.9656C221.119 96.3008 216 100.83 209.439 102.262C202.458 103.771 196.175 100.559 191.615 96.3395C187.892 92.8558 185.519 89.1399 183.471 84.8434C181.191 80.0437 179.236 75.1666 177.142 70.3281C174.768 64.8704 172.302 59.4127 169.37 54.1485C166.857 49.6197 163.972 45.0522 159.877 41.3363C156.852 38.5881 152.803 36.2269 148.103 36.7688C145.171 37.1172 142.611 38.472 140.285 39.9428C136.841 42.1492 133.862 44.8587 130.838 47.4521C124.741 52.6776 118.086 57.2063 108.965 57.6708C104.265 57.9031 99.6113 57.0515 95.4695 55.1549C91.4208 53.2582 88.0236 50.51 84.9056 47.6456C78.2973 41.5299 72.806 34.369 63.6847 30.6144C59.1706 28.7564 54.1912 27.9823 49.1652 28.1758C44.1857 28.3693 39.3459 29.5693 34.4595 30.1499C30.4573 30.6918 26.3621 30.6918 22.4064 29.5306C17.6597 28.0984 13.2852 25.3502 10.1207 22.0987C5.65313 17.5313 3.46589 11.7639 3.18667 5.95776C0.39445 9.2866 0.627135 14.2411 1.88363 18.2667C3.32628 22.989 6.1185 27.3242 9.60877 30.8079C16.3101 37.6591 25.8967 41.7234 35.4833 41.4137C36.926 41.375 38.3221 41.1815 39.6716 40.9105C40.0439 40.8331 40.4628 40.7557 40.8351 40.6783C43.1619 40.1751 45.5353 39.4397 47.8622 38.859C49.7236 38.3946 51.5851 38.0462 53.4931 37.9688C60.6598 37.5817 66.1977 43.0007 71.1306 47.5295C75.8774 51.9421 79.8796 56.9741 84.3006 61.6577C88.2097 65.7607 92.9099 68.5863 98.5409 69.3605C109.058 70.8313 119.389 66.1865 127.813 60.2642C132.792 56.7806 137.772 52.7937 143.682 51.1293C149.871 49.3875 156.014 51.168 160.994 55.0387C170.999 62.8963 173.745 75.9794 179.236 86.8562C184.355 96.9975 192.359 106.403 203.854 108.919C208.74 109.965 213.86 109.655 218.42 107.565C222.888 105.552 226.518 102.068 229.449 98.1588C232.94 93.5913 235.592 88.4432 238.338 83.4499C241.828 77.0245 245.318 70.5991 248.855 64.1737C250.577 61.0384 252.253 57.9418 253.974 54.8065C255.882 51.2841 257.604 47.4521 262.211 47.336C268.308 47.1811 273.008 52.3292 279.058 52.6002C288.877 52.9872 296.137 43.1169 298.091 34.369C298.324 33.2852 298.557 32.2014 298.743 31.1176C297.719 32.6272 296.649 34.098 295.485 35.4915Z" fill="#62BA00"/>
<path d="M292.414 11.222C289.063 17.2604 285.061 24.4987 276.87 26.705C273.427 27.634 269.424 27.7114 266.306 26.047C262.863 24.2664 261.699 20.4731 257.651 19.3119C256.022 18.8474 254.253 18.9635 252.857 19.8151C251.554 20.6279 250.856 21.9827 250.112 23.1826C248.995 25.0793 247.924 26.9759 246.807 28.9113C244.108 33.6723 241.456 38.472 238.663 43.233C235.825 48.1102 232.846 52.9873 229.589 57.6709C227.122 61.1933 224.516 64.9092 221.026 67.8122C220.049 68.6251 218.839 69.5154 217.489 69.7863C215.767 70.1347 213.022 69.5541 211.253 68.8186C206.693 66.8832 204.552 62.5867 203.202 58.6773C201.48 53.684 200.736 48.5359 199.759 43.4266C198.688 37.6979 197.292 32.124 194.593 26.7437C191.335 20.1634 186.402 14.009 178.91 10.3705C175.373 8.62863 171.557 7.66095 167.741 7.4287C167.927 7.4287 168.113 7.4287 168.3 7.4287C172.767 7.46741 177.235 7.46741 181.702 7.50612C186.17 7.54483 190.637 7.62224 195.105 7.54483C200.131 7.46741 205.11 7.31258 210.136 7.08034C215.209 6.84809 220.281 6.49973 225.307 6.03524C226.285 5.95782 226.285 4.87402 225.307 4.75789C216.419 3.90633 207.484 3.32572 198.502 3.13218C189.567 2.89994 180.632 2.97735 171.697 2.97735C153.78 2.93865 135.863 2.82252 117.947 2.97735C107.941 3.05477 97.8426 2.93865 87.9768 4.56436C87.6045 4.64177 87.6045 5.14497 87.9768 5.18367C90.164 5.57075 92.3513 5.88041 94.5385 6.11265C96.7723 6.3449 99.0526 6.46102 101.333 6.57714C105.754 6.80938 110.128 6.8868 114.549 6.96421C123.484 7.08034 132.42 7.15775 141.355 7.23517C149.033 7.27387 156.665 7.31258 164.344 7.39C161.459 7.54483 158.573 8.08673 155.781 9.01571C148.475 11.4543 142.239 15.9443 138.097 21.4795C133.816 27.1695 130.651 33.5175 124.462 38.0462C122.228 39.7107 119.482 40.988 116.504 41.3364C112.874 41.7622 109.151 40.8332 105.987 39.3623C99.3783 36.227 94.8643 30.9628 91.3274 25.5051C88.0233 20.3957 85.138 14.5896 80.3447 10.293C77.6456 7.89319 74.1088 5.99653 70.1066 5.64816C65.8717 5.2998 61.4507 6.3836 57.6347 7.81578C49.9095 10.6801 43.3013 15.5573 35.2504 17.8023C27.9906 19.8151 20.4051 17.7636 15.193 13.2348C13.5642 11.8413 12.2611 10.2156 11.3304 8.4738L29.9452 6.77068C36.4604 6.69326 43.0221 6.53843 49.5373 6.30619C51.6314 6.22877 53.7256 5.91911 55.8197 5.68687C57.9139 5.45463 60.1477 5.22238 62.0557 4.52565C62.8468 4.2547 62.4745 3.32572 61.823 3.13218C59.915 2.59028 57.7743 2.55157 55.7732 2.43545C53.8187 2.31933 51.771 2.1645 49.8165 2.20321C45.8143 2.28062 41.7656 2.43545 37.7634 2.62899C29.759 2.97735 21.7081 3.24831 13.7503 3.82892C12.2611 3.94504 10.7254 4.21599 9.51546 4.95143C9.28278 4.91272 9.05009 4.91272 8.81741 4.99014C8.6778 4.64177 8.02628 4.52565 7.88667 4.99014C7.65399 5.76429 7.51437 6.57714 7.46784 7.35129C7.4213 7.50612 7.4213 7.69965 7.4213 7.85448C6.95593 17.4926 17.0079 26.8598 28.9214 26.7437C37.4376 26.6663 45.2093 22.7568 53.8187 23.1439C62.1022 23.531 69.7808 27.0146 76.1099 31.2337C78.9951 33.1691 81.6943 35.2593 84.1608 37.5818C86.4411 39.7494 88.5818 42.0331 90.8621 44.2007C95.0039 48.1489 100.356 52.368 107.01 52.5228C110.64 52.6002 114.177 51.439 117.388 50.0842C120.925 48.6134 124.276 46.7941 127.58 45.0523C131.256 43.1169 134.607 40.8332 138.004 38.5882C139.819 37.3882 141.634 36.1496 143.495 35.0271C145.264 33.9433 147.218 32.8595 149.499 32.7433C153.454 32.5498 157.596 34.4078 160.668 36.3044C163.274 37.8914 165.414 39.9816 167.136 42.2266C168.905 44.5878 170.301 47.1038 171.65 49.6198C173.139 52.4067 174.629 55.1549 176.071 57.9806C179.375 64.406 182.168 71.0249 185.239 77.4891C187.985 83.2178 190.637 89.0626 195.943 93.5139C200.41 97.2298 207.484 100.597 213.72 97.6943C216.791 96.2622 219.211 93.9397 221.352 91.656C223.725 89.1013 225.866 86.3531 227.913 83.6048C237.035 71.3346 244.201 58.1741 253.369 45.9426C255.649 42.9234 258.023 39.8655 260.675 37.0399C261.792 35.8399 263.188 34.4852 265.05 34.1368C266.353 33.8658 267.749 34.2529 268.959 34.7174C271.751 35.7238 274.311 37.156 277.056 38.2785C279.197 39.1688 281.85 40.1752 284.316 39.672C287.341 39.0139 289.156 36.2657 290.273 34.0594C291.39 31.8918 292.134 29.5693 292.693 27.2469C293.717 22.8729 294.229 18.4216 294.415 13.9703C294.461 13.1961 294.461 12.422 294.508 11.6478C294.461 10.835 292.879 10.3705 292.414 11.222Z" fill="#9FF24B"/>
<path d="M255.742 9.05435C262.118 9.40272 268.493 9.63496 274.869 9.71238C276.637 9.75109 278.406 9.75109 280.174 9.75109C282.035 9.75109 283.943 9.86721 285.758 9.36401C287.294 8.93823 287.341 7.15769 285.758 6.73191C284.176 6.30613 282.501 6.34484 280.825 6.34484C279.29 6.34484 277.708 6.34484 276.172 6.30613C273.007 6.26742 269.843 6.22871 266.678 6.1513C260.396 5.99647 254.16 5.95776 247.877 5.72552C244.294 5.6094 240.711 5.6481 237.127 5.88035C236.383 5.91906 236.15 6.84803 236.941 7.00286C243.084 8.35762 249.413 8.70599 255.742 9.05435Z" fill="#9FF24B"/>
<path d="M12.2154 5.37708C14.6818 6.49959 17.7067 6.80925 20.4989 7.00279C23.4308 7.19633 26.3626 7.19633 29.2944 7.08021C32.2263 7.00279 35.2046 6.77055 38.1364 6.57701C41.0683 6.38347 44.0466 6.30606 46.9785 6.03511C48.6073 5.88028 50.2361 5.72545 51.8648 5.60932C53.5402 5.4932 55.262 5.53191 56.8908 5.22225C57.5424 5.10613 57.4027 4.40939 56.8908 4.25457C55.5413 3.82878 54.0521 3.75137 52.6094 3.63525C51.1668 3.51912 49.7707 3.44171 48.328 3.403C45.4427 3.32559 42.5575 3.55783 39.6256 3.79008C33.8085 4.21586 27.9914 4.68035 22.1277 4.79647C20.5455 4.83518 18.9167 4.87388 17.2879 4.83518C15.6126 4.79647 13.9838 4.75776 12.355 4.91259C12.1223 4.9513 11.9361 5.26096 12.2154 5.37708Z" fill="#B3F76A"/>
<path d="M175.652 6.61579C179.003 6.61579 182.307 6.61579 185.658 6.49966C187.286 6.46096 188.869 6.34483 190.497 6.19C192.173 6.03518 193.895 6.11259 195.477 5.68681C196.035 5.53198 196.035 4.87395 195.477 4.75783C194.081 4.40947 192.592 4.44817 191.149 4.33205C189.706 4.25464 188.264 4.09981 186.775 4.0611C183.796 3.98368 180.864 3.94498 177.886 3.98368C172.022 3.94498 166.205 3.98368 160.342 4.02239C148.568 4.0611 136.794 4.09981 125.02 4.37076C121.669 4.44817 118.365 4.48688 115.015 4.68042C113.386 4.75783 111.803 4.83525 110.175 4.91266C108.499 4.99008 106.917 5.18361 105.288 5.45456C105.056 5.49327 105.056 5.80293 105.288 5.84164C106.731 6.03518 108.08 6.22871 109.523 6.30613C110.966 6.38354 112.408 6.42225 113.898 6.46096C116.876 6.57708 119.808 6.65449 122.786 6.6932C128.65 6.77062 134.513 6.77062 140.377 6.77062C152.104 6.77062 163.878 6.65449 175.652 6.61579Z" fill="#B3F76A"/>
<path d="M113.153 47.1036C105.382 44.5877 98.4012 40.5234 92.9099 35.3366C87.7443 30.4982 84.6263 24.4985 79.7865 19.4666C77.5527 17.1441 74.8535 15.1313 71.5494 13.9314C67.2215 12.3831 62.5212 12.4605 58.0072 13.3895C49.0255 15.2087 41.44 20.5117 32.1791 21.4793C27.8512 21.9438 23.6163 21.131 19.9399 19.1569C18.218 18.2279 16.7289 17.0667 15.4724 15.7119C14.8208 15.0539 14.2624 14.3185 13.797 13.5443C13.3782 12.8863 12.4009 11.9573 12.2148 11.4541C11.7959 10.4477 9.88792 10.8735 10.3068 11.8799C10.6325 12.6541 10.5394 13.4669 10.9583 14.2411C11.3771 14.9765 11.9356 15.7119 12.494 16.37C13.6109 17.686 14.9139 18.8859 16.4496 19.931C17.5665 20.6665 18.7299 21.3245 19.9864 21.9051C22.2668 23.1438 24.7798 23.9953 27.4789 24.3824C35.8556 25.5823 43.4411 21.8664 51.4454 20.7052C59.4498 19.544 67.9661 21.4406 74.2951 25.6597C80.438 29.7627 84.6728 35.414 89.9781 40.2137C95.8417 45.5553 104.125 50.1615 113.2 48.9616C113.712 48.8842 114.084 48.4197 114.084 47.9939C114.038 47.5681 113.665 47.2585 113.153 47.1036Z" fill="#B3F76A"/>
<path d="M244.992 47.1037C239.315 57.5934 232.195 67.5412 224.004 76.7923C222.189 78.8437 220.374 81.1275 218.001 82.7919C217.07 83.4499 215.86 84.0305 214.604 84.1079C213.254 84.1854 212.044 83.7596 211.02 83.0628C208.694 81.5145 207.065 79.1534 205.529 77.0632C203.9 74.8569 202.411 72.6119 201.015 70.2894C195.431 60.9996 191.568 51.0905 186.17 41.7234C183.517 37.1172 180.492 32.5884 176.723 28.4854C173.139 24.576 168.486 20.744 162.575 19.6214C156.34 18.4215 150.383 20.6278 145.636 23.8793C140.517 27.3629 136.282 31.8917 132.606 36.4592C131.675 37.6204 131.07 38.8977 130.186 40.0976C129.395 41.2589 131.535 42.304 132.326 41.1427C133.211 39.9041 134.374 38.7429 135.351 37.543C135.817 36.9623 136.329 36.343 136.841 35.7624C139.54 33.7883 142.937 32.4723 146.474 31.8917C151.872 31.0014 157.363 31.9304 162.064 34.1754C173.279 39.4783 178.538 49.7745 182.028 59.6062C183.936 65.0252 185.518 70.5216 187.752 75.8633C189.893 80.9726 192.685 86.1981 196.92 90.3398C198.874 92.2365 201.387 93.8622 204.319 94.5976C207.158 95.3331 210.276 95.1783 213.068 94.4428C219.164 92.8558 223.492 88.7915 226.75 84.3789C230.38 79.3856 233.265 74.0053 236.197 68.7411C239.268 63.206 242.2 57.6321 245.086 52.0195C245.784 50.6648 246.482 49.2713 247.18 47.9165C247.785 46.8327 245.597 46.0586 244.992 47.1037Z" fill="#B3F76A"/>
<path d="M287.992 19.9311C286.177 22.6407 283.711 25.0405 280.779 26.9372C279.29 27.9049 277.707 28.7177 276.032 29.4145C274.31 30.1112 272.263 30.9627 270.308 30.924C268.214 30.8853 266.399 29.8015 264.677 28.9113C262.722 27.9049 260.814 26.7824 258.813 25.8147C257.371 25.1566 255.695 24.847 254.253 25.6985C253.043 26.3953 252.391 27.5952 252.019 28.7564C251.367 30.6144 251.181 32.6272 250.809 34.5625C250.53 35.956 250.297 37.3108 250.111 38.7042C249.739 39.4397 249.413 40.1751 249.273 40.988C249.18 41.5299 250.018 41.9169 250.39 41.375C252.252 38.6655 254.718 36.227 257.045 33.7884C257.557 33.2078 258.069 32.5885 258.674 32.0853C259.325 31.5047 260.116 31.3885 261.094 31.5047C263.048 31.7756 265.049 32.511 266.911 33.0529C269.005 33.6336 271.099 34.2529 273.193 34.8335C274.962 35.3367 276.684 35.8012 278.545 35.956C280.174 36.0721 281.896 35.8399 283.245 35.0657C284.734 34.2142 285.572 32.9368 286.27 31.5821C288.132 28.021 289.295 24.2277 289.9 20.3956C289.947 19.5054 288.457 19.2731 287.992 19.9311Z" fill="#B3F76A"/>
<path d="M216.977 28.1758C215.581 28.1758 215.581 29.995 216.977 29.995C218.373 29.995 218.373 28.1758 216.977 28.1758Z" fill="#9FF24B"/>
<path d="M210.928 40.1752C210.882 40.0977 210.789 40.0203 210.742 39.9816C210.696 39.9429 210.649 39.9042 210.602 39.8655C210.416 39.7494 210.23 39.7107 209.997 39.672C209.904 39.672 209.811 39.672 209.765 39.6333C209.532 39.5946 209.206 39.7494 209.02 39.8655C208.834 40.0203 208.694 40.2526 208.741 40.4848C208.741 40.7171 208.834 40.9493 209.02 41.1041C209.206 41.259 209.486 41.3751 209.765 41.3364C209.858 41.3364 209.951 41.3364 209.997 41.2977C210.184 41.2977 210.323 41.259 210.509 41.1815C210.602 41.1428 210.696 41.0654 210.742 40.988C210.789 40.9493 210.882 40.8719 210.928 40.7945C211.021 40.6784 211.068 40.5622 211.068 40.4461C211.068 40.4074 211.021 40.2913 210.928 40.1752Z" fill="#9FF24B"/>
<path d="M222.469 40.8717C222.329 40.6008 222.236 40.2911 221.911 40.1363C221.678 40.0202 221.399 40.0202 221.166 40.1363C220.84 40.2911 220.747 40.6008 220.607 40.8717C220.514 41.1427 220.607 41.491 220.84 41.6459C221.026 41.8007 221.259 41.8781 221.538 41.8781C221.771 41.8781 222.05 41.8007 222.236 41.6459C222.469 41.4523 222.609 41.1427 222.469 40.8717Z" fill="#9FF24B"/>
<path d="M216.28 23.4535C215.163 23.4535 215.163 24.9244 216.28 24.9244C217.443 24.9244 217.443 23.4535 216.28 23.4535Z" fill="#9FF24B"/>
<path d="M120.414 19.9698C120.274 19.8536 120.134 19.8149 119.948 19.8149C119.716 19.8149 119.529 19.9311 119.39 20.0859C119.204 20.3181 118.924 20.5504 118.878 20.8213C118.785 21.0923 119.111 21.3632 119.436 21.2858C119.762 21.2084 120.041 21.0149 120.321 20.86C120.507 20.7439 120.646 20.5891 120.646 20.3956C120.6 20.202 120.507 20.0859 120.414 19.9698Z" fill="#9FF24B"/>
<path d="M117.295 30.6531C116.318 30.6531 116.318 31.8917 117.295 31.8917C118.272 31.8917 118.272 30.6531 117.295 30.6531Z" fill="#9FF24B"/>
<path d="M106.546 23.4148C106.453 23.4535 106.36 23.4535 106.267 23.4922C106.034 23.5309 105.708 23.7244 105.662 23.9567C105.569 24.1115 105.569 24.305 105.662 24.4599C105.708 24.6921 106.034 24.8856 106.267 24.9243C106.36 24.9631 106.453 24.9631 106.546 25.0018C107.151 25.1179 107.756 24.7695 107.756 24.2276C107.802 23.647 107.151 23.2599 106.546 23.4148Z" fill="#9FF24B"/>
<path d="M100.915 17.3765C99.7048 17.3765 99.7048 18.9248 100.915 18.9248C102.125 18.9635 102.125 17.3765 100.915 17.3765Z" fill="#9FF24B"/>
<path d="M37.9502 13.0411C36.7868 13.0411 36.7868 14.5507 37.9502 14.5507C39.1602 14.5507 39.1602 13.0411 37.9502 13.0411Z" fill="#9FF24B"/>
<path d="M29.4329 9.94458C28.5022 9.94458 28.5022 11.1445 29.4329 11.1445C30.3637 11.1445 30.3637 9.94458 29.4329 9.94458Z" fill="#9FF24B"/>
<path d="M26.8279 14.8605C25.8972 14.8605 25.8972 16.0604 26.8279 16.0604C27.7587 16.0604 27.7587 14.8605 26.8279 14.8605Z" fill="#9FF24B"/>
<path d="M229.357 46.6779C229.171 46.4069 228.892 46.1747 228.566 46.0198C228.566 46.0198 228.519 46.0198 228.519 45.9811C228.333 45.865 228.1 45.8263 227.868 45.7876C227.821 45.7489 227.775 45.7489 227.728 45.7102C227.588 45.6715 227.449 45.5941 227.263 45.5553C227.03 45.4779 226.751 45.4779 226.518 45.5166C226.332 45.5166 226.192 45.5553 226.053 45.6328C225.82 45.7102 225.634 45.7876 225.448 45.9424C225.215 46.136 225.075 46.3682 224.982 46.6391C224.889 46.8327 224.889 47.0649 224.936 47.2585C224.936 47.452 225.029 47.6455 225.169 47.8391L225.262 47.9552C225.308 48.1487 225.401 48.3036 225.494 48.4971C225.494 48.4971 225.494 48.5358 225.541 48.5358C225.727 48.8068 226.006 49.039 226.332 49.1938C226.658 49.3487 227.077 49.4648 227.449 49.4648C228.054 49.4261 228.612 49.2713 229.031 48.9229C229.264 48.7681 229.403 48.5745 229.496 48.3423C229.636 48.11 229.683 47.8778 229.683 47.6455C229.683 47.2972 229.59 46.9875 229.357 46.6779Z" fill="#71D100"/>
<path d="M234.662 39.0138C233.126 39.0138 233.126 40.9879 234.662 40.9879C236.198 40.9879 236.198 39.0138 234.662 39.0138Z" fill="#71D100"/>
<path d="M226.146 34.9109C224.191 34.9109 224.191 37.4656 226.146 37.4656C228.1 37.4269 228.1 34.9109 226.146 34.9109Z" fill="#71D100"/>
<path d="M242.712 62.664C242.526 62.5866 242.34 62.5092 242.153 62.4705C241.967 62.4705 241.828 62.4318 241.641 62.4318C241.455 62.4318 241.269 62.4705 241.083 62.5092C240.99 62.5092 240.85 62.5479 240.757 62.5479C240.618 62.5866 240.478 62.664 240.338 62.7027C240.106 62.7801 239.966 62.935 239.827 63.0898C239.733 63.1672 239.64 63.2833 239.594 63.4382C239.501 63.6317 239.408 63.8252 239.454 64.0188C239.454 64.2897 239.547 64.5607 239.687 64.7929C239.78 64.9864 239.966 65.1026 240.152 65.2187C240.338 65.3348 240.525 65.4509 240.757 65.4896C240.85 65.4896 240.99 65.5283 241.083 65.5283C241.455 65.5671 241.781 65.6058 242.153 65.5283C242.34 65.4896 242.526 65.4122 242.712 65.3348C243.27 65.0639 243.643 64.522 243.643 64.0188C243.596 63.4382 243.27 62.8963 242.712 62.664Z" fill="#71D100"/>
<path d="M229.728 64.7543C229.495 64.5994 229.309 64.4833 228.984 64.4059C228.658 64.3285 228.379 64.3672 228.099 64.4059C227.96 64.4446 227.867 64.4446 227.727 64.4833C227.634 64.522 227.494 64.5607 227.401 64.5994C227.215 64.6769 227.122 64.793 227.029 64.9091C226.843 65.1026 226.703 65.3736 226.75 65.6058C226.75 65.7994 226.843 66.0316 226.936 66.1864C227.076 66.4187 227.448 66.6896 227.774 66.7283C227.913 66.7671 228.006 66.7671 228.146 66.8058C228.472 66.8445 228.751 66.8832 229.03 66.8058C229.309 66.7283 229.542 66.6122 229.775 66.4574C230.054 66.2639 230.24 65.8768 230.193 65.6058C230.147 65.2962 230.054 64.9865 229.728 64.7543Z" fill="#71D100"/>
<path d="M236.755 71.1409C236.569 71.1022 236.383 71.0635 236.197 71.0635C236.104 71.0635 236.011 71.0635 235.964 71.1022C235.778 71.1022 235.638 71.1409 235.452 71.1796C235.313 71.2183 235.173 71.2957 235.033 71.4118C234.801 71.6054 234.661 71.915 234.661 72.1473C234.661 72.4182 234.801 72.6892 235.033 72.8827C235.126 72.9214 235.22 72.9989 235.313 73.0376C235.499 73.115 235.731 73.1924 235.964 73.1924C236.057 73.1924 236.15 73.2311 236.197 73.2311C236.383 73.2311 236.569 73.1924 236.755 73.1537C237.035 73.0763 237.221 72.9601 237.407 72.7666C237.593 72.5731 237.686 72.3795 237.686 72.1473C237.639 71.6828 237.314 71.2957 236.755 71.1409Z" fill="#71D100"/>
<path d="M182.866 26.434C181.33 26.434 181.33 28.408 182.866 28.408C184.401 28.4467 184.401 26.434 182.866 26.434Z" fill="#71D100"/>
<path d="M183.797 17.3764C183.471 17.1055 183.006 16.9893 182.54 17.0668C182.121 17.0668 181.656 17.2216 181.377 17.4538C181.005 17.7635 180.865 18.228 180.911 18.6538C180.958 19.2344 181.563 19.6989 182.215 19.7376C182.726 19.815 183.285 19.6989 183.657 19.3505C183.983 19.0795 184.123 18.7312 184.123 18.3828C184.262 18.0344 184.169 17.6474 183.797 17.3764Z" fill="#71D100"/>
<path d="M176.305 18.886C174.862 18.886 174.862 20.7439 176.305 20.7439C177.747 20.7439 177.747 18.886 176.305 18.886Z" fill="#71D100"/>
<path d="M114.69 23.2986C112.503 23.2986 112.503 26.1242 114.69 26.1242C116.877 26.1242 116.877 23.2986 114.69 23.2986Z" fill="#71D100"/>
<path d="M114.735 30.1886C114.316 29.9564 113.711 29.9564 113.293 30.1499C113.2 30.1886 113.106 30.1886 113.013 30.2273C112.734 30.3048 112.502 30.4209 112.315 30.6144C112.129 30.808 112.036 31.0402 112.036 31.2724C112.036 31.466 112.129 31.6595 112.222 31.8143C112.362 32.0466 112.688 32.2401 113.013 32.3175C113.106 32.3563 113.2 32.3563 113.293 32.395C113.758 32.5885 114.316 32.5885 114.735 32.3563C115.201 32.124 115.48 31.6982 115.48 31.2724C115.48 30.8467 115.201 30.3822 114.735 30.1886Z" fill="#71D100"/>
<path d="M123.763 28.0596C123.717 27.9435 123.67 27.8274 123.624 27.75C123.531 27.5564 123.438 27.4016 123.205 27.2468C123.019 27.1306 122.786 27.0532 122.507 27.0532C122.321 27.0532 122.135 27.0919 121.948 27.1693C121.669 27.2855 121.53 27.5177 121.436 27.7112C121.39 27.8274 121.343 27.9435 121.297 28.0209C121.204 28.2144 121.204 28.4467 121.297 28.6789C121.343 28.8338 121.436 28.9499 121.53 29.066C121.623 29.1821 121.762 29.2595 121.902 29.337C122.228 29.5305 122.833 29.5305 123.158 29.337C123.251 29.2982 123.344 29.2208 123.438 29.1434C123.577 29.0273 123.717 28.8338 123.763 28.6789C123.856 28.5241 123.856 28.2531 123.763 28.0596Z" fill="#71D100"/>
<path d="M55.587 24.6534C55.3543 24.305 54.8424 24.0728 54.3771 24.0728C53.8652 24.0728 53.3998 24.305 53.1671 24.6534C53.0275 24.8469 52.981 25.0404 52.981 25.234C52.981 25.3888 53.0275 25.5436 53.074 25.6598C53.0275 25.8533 53.074 26.0081 53.2602 26.163C53.4463 26.3178 53.6325 26.3178 53.8652 26.3178C54.1444 26.4339 54.5167 26.4339 54.7959 26.3565C55.2147 26.2404 55.5405 26.0081 55.7266 25.6598C55.8197 25.3888 55.8197 25.0017 55.587 24.6534Z" fill="#71D100"/>
<path d="M50.4223 29.2209C48.9797 29.2209 48.9797 31.1176 50.4223 31.1176C51.865 31.1176 51.9115 29.2209 50.4223 29.2209Z" fill="#71D100"/>
<path d="M46.6523 34.2141C45.0235 33.9819 43.3482 34.3303 41.7659 34.6786C40.1836 34.9883 38.6014 35.2979 36.9726 35.4915C33.9012 35.8398 30.7366 35.9173 27.6652 35.4915C22.4065 34.756 17.7528 32.7045 14.1229 29.4144C13.2387 28.6016 12.4476 27.6726 11.7496 26.7436C11.3773 26.2791 11.005 25.7759 10.6792 25.2727C10.3069 24.7308 9.79501 24.2663 9.42271 23.7244C9.32964 23.6083 9.14349 23.6857 9.09695 23.8018C9.05042 24.3825 8.86427 24.8857 8.95734 25.4663C9.05042 26.0469 9.14349 26.5888 9.37617 27.1307C9.79501 28.2145 10.4 29.2209 11.1911 30.1886C12.7734 32.1626 14.8675 33.7884 17.2409 35.1044C22.6392 38.1236 29.294 39.0913 35.7161 38.5881C37.7637 38.4332 39.7648 38.1623 41.7659 37.7752C43.6274 37.4268 45.8146 36.9236 47.1642 35.7237C47.6761 35.2979 47.5365 34.3303 46.6523 34.2141Z" fill="#71D100"/>
<path d="M101.008 62.8577C100.449 62.3932 99.751 62.3545 99.0064 62.1996C98.2618 62.0448 97.4707 61.9287 96.7726 61.7352C95.2835 61.3481 93.9339 60.8062 92.6309 60.1094C89.9317 58.6773 87.6049 56.7032 85.6038 54.6517C83.4165 52.4454 81.8808 49.8907 80.0193 47.5295C78.1579 45.2458 75.9241 43.1556 73.4576 41.3364C70.6189 39.2849 67.5474 37.5043 64.1037 36.227C63.9175 36.1496 63.7314 36.3431 63.871 36.4979C68.0593 40.9493 73.6438 44.3168 77.1806 49.194C78.1113 50.4713 78.949 51.8261 79.8797 53.1421C80.8105 54.4195 81.8808 55.6581 82.9977 56.8193C85.1384 59.0643 87.6049 61.1545 90.4902 62.7415C92.0724 63.6318 93.9339 64.406 95.8419 64.6769C96.8657 64.793 97.843 64.8704 98.8203 64.7156C99.7045 64.5995 100.821 64.3285 101.194 63.5931C101.287 63.3996 101.287 63.0899 101.008 62.8577Z" fill="#71D100"/>
<path d="M126.138 55.3097C126.138 55 125.812 54.6516 125.393 54.6903C123.532 54.8452 121.903 56.3548 120.553 57.2837C119.064 58.2901 117.436 59.103 115.714 59.7997C113.992 60.4964 112.177 60.9609 110.362 61.4641C109.478 61.6964 108.593 61.8899 107.663 62.1222C106.872 62.3157 105.755 62.3544 105.196 62.8963C105.103 62.9737 105.103 63.0898 105.196 63.1673C105.801 63.7479 106.965 63.6705 107.802 63.7479C108.826 63.8253 109.803 63.7866 110.827 63.6705C112.968 63.4769 115.109 62.8576 117.063 62.1222C118.925 61.4254 120.693 60.5739 122.368 59.5288C123.206 58.9869 124.09 58.445 124.788 57.7482C125.393 57.1289 126.184 56.1999 126.138 55.3097Z" fill="#71D100"/>
<path d="M151.965 43.7361C151.081 43.0006 149.731 42.8845 148.381 42.8458C146.985 42.8071 145.45 43.1168 144.1 43.5038C142.75 43.8909 141.494 44.4328 140.377 45.207C139.307 45.9811 138.562 46.9101 137.911 47.9165C137.724 48.1874 138.143 48.381 138.376 48.2261C139.353 47.5681 140.47 47.1036 141.587 46.6778C142.657 46.2521 143.728 45.8263 144.891 45.5166C146.055 45.207 147.265 45.1295 148.475 44.9747C149.638 44.8586 150.708 44.9747 151.686 44.6263C152.104 44.4328 152.291 44.007 151.965 43.7361Z" fill="#71D100"/>
<path d="M230.612 90.3012C229.961 90.5721 229.449 91.0753 228.937 91.5398C228.379 92.043 227.82 92.4688 227.262 92.972C226.191 93.9784 225.214 95.0622 224.19 96.1073C222.422 98.0039 220.747 99.9006 218.652 101.565C216.744 103.075 214.604 104.158 212.044 104.7C210.834 104.971 209.531 105.049 208.275 104.971C207.67 104.933 207.018 104.933 206.413 104.894C205.808 104.855 205.296 104.7 204.691 104.7C204.552 104.7 204.459 104.816 204.505 104.933C204.831 105.707 205.622 106.249 206.413 106.674C207.437 107.216 208.694 107.41 209.904 107.526C212.277 107.758 214.743 107.216 216.838 106.365C219.071 105.474 221.072 104.12 222.748 102.61C224.47 101.062 226.145 99.3587 227.541 97.6168C228.379 96.533 229.216 95.4879 229.821 94.3267C230.147 93.7074 230.426 93.0881 230.752 92.4301C231.031 91.8882 231.357 91.2688 231.311 90.6882C231.311 90.3012 230.938 90.1463 230.612 90.3012Z" fill="#71D100"/>
<path d="M244.062 68.1993C243.364 68.8573 242.759 69.4766 242.294 70.2895C241.782 71.1023 241.363 71.9152 240.897 72.7281C239.967 74.3151 239.036 75.9021 238.105 77.4891C237.175 79.0761 236.104 80.6244 235.22 82.2501C234.801 83.0242 234.336 83.8371 233.917 84.6112C233.405 85.5015 233.172 86.4305 232.707 87.3207C232.66 87.4369 232.8 87.5143 232.893 87.3982C233.545 86.6627 234.336 86.0434 234.941 85.2693C235.546 84.4951 236.104 83.7597 236.709 82.9855C237.826 81.4759 238.803 79.8889 239.781 78.3406C240.758 76.7923 241.735 75.2053 242.666 73.6183C243.131 72.8442 243.55 72.1087 243.969 71.2959C244.434 70.3669 244.667 69.554 244.853 68.5864C244.9 68.238 244.434 67.8509 244.062 68.1993Z" fill="#71D100"/>
<path d="M289.25 42.8072C288.738 42.962 288.319 43.2717 287.854 43.5426C287.342 43.8136 286.83 44.0458 286.271 44.2781C283.06 45.8264 279.012 47.8391 275.335 46.1747C273.334 45.2845 271.752 43.8523 269.751 42.962C267.517 41.9556 265.19 41.7234 263.003 42.9233C262.677 43.1168 262.77 43.6587 263.236 43.62C264.259 43.5426 265.144 43.891 266.028 44.2781C266.912 44.6651 267.796 45.0909 268.541 45.6328C270.123 46.7166 271.566 48.0327 273.381 48.8842C277.522 50.8583 282.781 50.0068 286.411 47.6456C287.202 47.1037 287.9 46.4844 288.552 45.8651C288.924 45.5167 289.25 45.1296 289.622 44.7813C289.948 44.4716 290.413 44.0845 290.506 43.6974C290.785 42.9233 289.948 42.5362 289.25 42.8072Z" fill="#71D100"/>
<path d="M37.1117 22.7567C34.2264 21.9826 31.0619 22.331 28.0835 22.4084C25.4775 22.4858 23.1506 21.9826 20.9168 20.8214C18.9158 19.7763 17.2404 18.3441 15.7978 16.7958C15.0532 16.0217 14.3551 15.2088 13.6571 14.3959C12.9125 13.5444 12.0283 12.7702 11.3302 11.88C11.2372 11.7251 11.0045 11.88 11.051 11.9961C11.4698 12.7702 11.7491 13.6218 12.1214 14.4347C12.4937 15.2088 13.0056 15.9442 13.4709 16.641C14.4947 18.1119 15.7047 19.5053 17.1008 20.744C20.1723 23.4148 24.0348 24.6534 28.4558 24.5373C29.8985 24.4986 31.3411 24.2276 32.7372 23.9954C34.1799 23.7631 35.6225 23.5696 37.0186 23.3761C37.5306 23.3373 37.4375 22.8342 37.1117 22.7567Z" fill="#DCFFD6"/>
<path d="M107.662 45.5167C106.917 45.207 106.312 45.0135 105.475 44.936C104.73 44.8586 103.985 44.7425 103.287 44.6264C101.752 44.3167 100.309 43.7748 98.9594 43.1168C96.1207 41.762 93.7008 39.9428 91.3739 38.0848C89.0471 36.1882 86.8598 34.1754 84.6726 32.2013C82.4388 30.1885 80.2981 28.0983 77.8782 26.2404C75.179 24.1889 72.3868 22.2535 69.1758 20.7826C69.0827 20.7439 69.0362 20.8213 69.0827 20.8988C73.8295 24.9243 78.1574 29.2208 82.5319 33.5174C84.7191 35.6463 86.9994 37.7752 89.3728 39.7493C91.7462 41.762 94.3057 43.6587 97.2376 45.1296C98.8664 45.9424 100.635 46.6005 102.496 46.9875C103.38 47.1811 104.311 47.2972 105.195 47.2585C106.266 47.2585 106.964 46.9875 107.801 46.4456C108.081 46.136 107.988 45.6328 107.662 45.5167Z" fill="#DCFFD6"/>
<path d="M191.056 69.1281C190.451 67.3863 189.707 65.7219 189.055 63.9801C187.799 60.6512 186.589 57.2837 185.565 53.8774C183.657 47.723 181.749 41.2201 176.165 36.6139C174.862 35.5301 173.279 34.6012 171.604 33.9818C170.813 33.6722 169.882 33.3625 169.044 33.2464C168.16 33.1303 167.183 33.1303 166.299 33.0529C166.159 33.0529 166.113 33.2077 166.252 33.2464C167.09 33.4012 167.788 33.6722 168.533 34.0592C169.184 34.4076 169.882 34.7173 170.534 35.0656C171.883 35.8398 173.047 36.6914 174.117 37.6977C176.49 39.7879 178.119 42.2652 179.283 44.9747C180.586 48.0326 181.423 51.2066 182.308 54.3419C183.285 57.6708 184.309 60.9609 185.565 64.251C186.263 66.0315 186.915 67.8508 187.752 69.5926C188.59 71.3732 189.521 73.2311 191.15 74.6246C191.475 74.9342 192.08 74.702 192.08 74.3149C192.266 72.5344 191.661 70.7926 191.056 69.1281Z" fill="#DCFFD6"/>
<path d="M207.298 92.9332C206.879 92.7784 206.507 92.8171 206.042 92.7397C205.716 92.6623 205.343 92.5074 205.064 92.3526C204.32 91.9268 203.761 91.3075 203.156 90.7269C201.807 89.4109 200.55 88.0561 199.433 86.5852C198.316 85.153 197.432 83.6048 196.501 82.0952C195.524 80.5469 194.361 78.9986 193.663 77.3342C193.616 77.1793 193.337 77.218 193.337 77.3729C193.477 78.3793 193.477 79.3469 193.709 80.3533C193.895 81.321 194.175 82.25 194.5 83.179C195.245 85.0756 196.501 86.9336 197.758 88.598C199.061 90.3011 200.55 91.9268 202.272 93.3977C203.017 94.0557 203.947 94.7138 205.064 94.9073C206.181 95.1008 207.763 94.7912 207.763 93.63C207.763 93.3977 207.577 93.0494 207.298 92.9332Z" fill="#DCFFD6"/>
<path d="M208.88 89.9527C208.229 89.3334 207.298 88.9076 206.554 88.3657C205.762 87.7464 205.111 87.0497 204.599 86.3142C204.273 85.8498 203.482 86.2755 203.761 86.74C204.692 88.2496 206.414 90.3011 208.601 90.5333C208.927 90.4946 209.02 90.1076 208.88 89.9527Z" fill="#DCFFD6"/>
<path d="M223.399 85.1531C222.608 85.4627 222.003 85.9272 221.398 86.4691C220.747 87.011 220.049 87.4755 219.304 87.9787C217.908 88.9464 216.372 89.7593 214.836 90.4947C214.464 90.6882 214.743 91.114 215.116 91.0366C217.07 90.7269 218.792 90.1076 220.467 89.2173C221.957 88.4045 223.818 87.2433 224.283 85.7337C224.47 85.2692 223.911 84.9595 223.399 85.1531Z" fill="#DCFFD6"/>
<path d="M285.247 27.75C285.108 27.5565 284.736 27.4404 284.503 27.5952C283.758 27.9823 283.432 28.5629 283.014 29.1822C282.595 29.8015 282.083 30.3821 281.431 30.8466C280.826 31.3111 280.128 31.6982 279.384 32.0078C278.965 32.2014 278.546 32.3562 278.127 32.511C277.708 32.6658 277.336 32.8981 276.871 32.9755C276.638 33.0142 276.638 33.2852 276.871 33.3239C277.383 33.4013 277.802 33.5948 278.313 33.5948C278.825 33.5948 279.384 33.5174 279.896 33.44C280.966 33.2465 281.943 32.782 282.827 32.2401C284.177 31.3498 286.411 29.337 285.247 27.75Z" fill="#DCFFD6"/>
<path d="M37.159 4.4481C35.3906 4.13844 33.5291 4.09973 31.7607 4.21585C29.8992 4.33197 28.0377 4.40939 26.1762 4.56422C24.3613 4.71905 22.5464 4.83517 20.778 4.99C18.9165 5.14483 17.1015 5.5319 15.2866 5.95768C15.0539 6.0351 15.0074 6.38346 15.2866 6.42217C17.055 6.61571 18.8234 6.80925 20.6383 6.77054C22.4998 6.73183 24.3613 6.65442 26.2228 6.577C28.0377 6.49959 29.8527 6.38346 31.6211 6.26734C33.4826 6.15122 35.4371 5.91898 37.2055 5.37707C37.6243 5.22224 37.764 4.52551 37.159 4.4481Z" fill="#DCFFD6"/>
<path d="M139.4 4.60303C137.12 3.90629 134.42 4.09983 132.047 4.13854C129.534 4.21595 127.021 4.29337 124.508 4.40949C122.042 4.52561 119.575 4.60303 117.155 4.83527C114.642 5.06751 112.176 5.37717 109.709 5.64813C109.384 5.68683 109.523 6.0352 109.756 6.07391C112.269 6.22874 114.782 6.38357 117.295 6.46098C119.808 6.5384 122.321 6.46098 124.834 6.46098C127.3 6.46098 129.767 6.38357 132.187 6.30615C134.607 6.22874 137.306 6.22874 139.54 5.41588C140.005 5.26105 139.819 4.71915 139.4 4.60303Z" fill="#DCFFD6"/>
</svg>
